<svg width="10" height="14" viewBox="0 0 10 14" fill="none" xmlns="http://www.w3.org/2000/svg">
<path d="M5 0.375C5.34518 0.375 5.625 0.654822 5.625 1V13C5.625 13.3452 5.34518 13.625 5 13.625C4.65482 13.625 4.375 13.3452 4.375 13V1C4.375 0.654822 4.65482 0.375 5 0.375Z" fill="#687684"/>
<path d="M1.5 5.875C1.84518 5.875 2.125 6.15482 2.125 6.5V13C2.125 13.3452 1.84518 13.625 1.5 13.625C1.15482 13.625 0.875 13.3452 0.875 13V6.5C0.875 6.15482 1.15482 5.875 1.5 5.875Z" fill="#687684"/>
<path d="M9.125 4.5C9.125 4.15482 8.84518 3.875 8.5 3.875C8.15482 3.875 7.875 4.15482 7.875 4.5V13C7.875 13.3452 8.15482 13.625 8.5 13.625C8.84518 13.625 9.125 13.3452 9.125 13V4.5Z" fill="#687684"/>
</svg>
