<svg width="23" height="23" viewBox="0 0 23 23" fill="none" xmlns="http://www.w3.org/2000/svg">
<path d="M19.75 1C19.75 0.585786 19.4142 0.25 19 0.25C18.5858 0.25 18.25 0.585786 18.25 1V3.25H16C15.5858 3.25 15.25 3.58579 15.25 4C15.25 4.41421 15.5858 4.75 16 4.75H18.25V7C18.25 7.41421 18.5858 7.75 19 7.75C19.4142 7.75 19.75 7.41421 19.75 7V4.75H22C22.4142 4.75 22.75 4.41421 22.75 4C22.75 3.58579 22.4142 3.25 22 3.25H19.75V1Z" fill="white"/>
<path d="M3.5 3.25C1.98122 3.25 0.75 4.48122 0.75 6V19.5C0.75 21.0188 1.98122 22.25 3.5 22.25H17C18.5188 22.25 19.75 21.0188 19.75 19.5V11C19.75 10.5858 19.4142 10.25 19 10.25C18.5858 10.25 18.25 10.5858 18.25 11V19.5C18.25 20.1904 17.6904 20.75 17 20.75H3.5C2.80964 20.75 2.25 20.1904 2.25 19.5V6C2.25 5.30964 2.80964 4.75 3.5 4.75H12C12.4142 4.75 12.75 4.41421 12.75 4C12.75 3.58579 12.4142 3.25 12 3.25H3.5Z" fill="white"/>
<path d="M5.5 8C5.08579 8 4.75 8.33579 4.75 8.75C4.75 9.16421 5.08579 9.5 5.5 9.5H15C15.4142 9.5 15.75 9.16421 15.75 8.75C15.75 8.33579 15.4142 8 15 8H5.5Z" fill="white"/>
<path d="M4.75 12.75C4.75 12.3358 5.08579 12 5.5 12H15C15.4142 12 15.75 12.3358 15.75 12.75C15.75 13.1642 15.4142 13.5 15 13.5H5.5C5.08579 13.5 4.75 13.1642 4.75 12.75Z" fill="white"/>
<path d="M10.5 15.75L5.49999 15.75C5.08578 15.75 4.75 16.0858 4.75 16.5C4.75 16.9143 5.0858 17.25 5.50001 17.25L10.5 17.25C10.9142 17.25 11.25 16.9142 11.25 16.5C11.25 16.0858 10.9142 15.75 10.5 15.75Z" fill="white"/>
</svg>
