<svg width="9" height="9" viewBox="0 0 9 9" fill="none" xmlns="http://www.w3.org/2000/svg">
<path d="M8.79723 1.18184C9.06759 0.91148 9.06759 0.473135 8.79723 0.202772C8.52687 -0.0675907 8.08852 -0.0675908 7.81816 0.202772L4.5 3.52093L1.18184 0.202772C0.911481 -0.0675907 0.473136 -0.0675907 0.202773 0.202772C-0.0675899 0.473135 -0.0675899 0.91148 0.202773 1.18184L3.52093 4.5L0.202773 7.81816C-0.0675908 8.08852 -0.0675909 8.52686 0.202772 8.79723C0.473135 9.06759 0.91148 9.06759 1.18184 8.79723L4.5 5.47907L7.81816 8.79723C8.08852 9.06759 8.52687 9.06759 8.79723 8.79723C9.06759 8.52687 9.06759 8.08852 8.79723 7.81816L5.47907 4.5L8.79723 1.18184Z" fill="white"/>
</svg>
