<svg width="3" height="12" viewBox="0 0 3 12" fill="none" xmlns="http://www.w3.org/2000/svg">
<path d="M3 1.75C3 2.57843 2.32843 3.25 1.5 3.25C0.671574 3.25 0 2.57843 0 1.75C0 0.92157 0.671574 0.25 1.5 0.25C2.32843 0.25 3 0.92157 3 1.75Z" fill="#C4C4C4"/>
<path d="M3 5.75C3 6.57843 2.32843 7.25 1.5 7.25C0.671574 7.25 0 6.57843 0 5.75C0 4.92157 0.671574 4.25 1.5 4.25C2.32843 4.25 3 4.92157 3 5.75Z" fill="#C4C4C4"/>
<path d="M1.5 11.25C2.32843 11.25 3 10.5784 3 9.75C3 8.92157 2.32843 8.25 1.5 8.25C0.671574 8.25 0 8.92157 0 9.75C0 10.5784 0.671574 11.25 1.5 11.25Z" fill="#C4C4C4"/>
</svg>
