<svg width="261" height="15" viewBox="0 0 261 15" fill="none" xmlns="http://www.w3.org/2000/svg">
<path fill-rule="evenodd" clip-rule="evenodd" d="M167.301 0.116975C168.209 -0.110107 169.168 -0.00392529 170.001 0.412501L170.344 0.584118C170.759 0.791337 171.123 1.07457 171.421 1.41413C171.463 1.46168 171.537 1.46168 171.579 1.41413C171.877 1.07457 172.241 0.791337 172.656 0.584118L172.999 0.412501C173.832 -0.00392529 174.791 -0.110107 175.699 0.116975C176.572 0.335201 177.334 0.844888 177.863 1.54996L178.055 1.80682C178.671 2.62707 179 3.61989 179 4.6363V4.92317C179 5.37799 178.944 5.83129 178.834 6.27303L178.767 6.54171C178.514 7.55255 178.061 8.50474 177.433 9.34191L177.042 9.86374C176.727 10.2833 176.383 10.6803 176.012 11.0517L175.615 11.4486C174.662 12.401 173.561 13.1951 172.352 13.7993C171.817 14.0669 171.183 14.0669 170.648 13.7993C169.439 13.1951 168.338 12.401 167.385 11.4486L166.988 11.0517C166.617 10.6803 166.273 10.2833 165.958 9.86374L165.567 9.34191C164.939 8.50474 164.486 7.55255 164.233 6.54171L164.166 6.27303C164.056 5.83129 164 5.37799 164 4.92317V4.6363C164 3.61989 164.329 2.62707 164.945 1.80682L165.137 1.54996C165.666 0.844888 166.428 0.335201 167.301 0.116975ZM169.421 1.42404C168.86 1.14377 168.222 1.07469 167.619 1.22544C167.038 1.37074 166.515 1.71404 166.145 2.20805L165.952 2.46491C165.485 3.08738 165.23 3.84931 165.23 4.6363V4.92317C165.23 5.29055 165.275 5.65634 165.364 6.01226L165.431 6.28095C165.649 7.15217 166.038 7.96901 166.574 8.68382L166.965 9.20565C167.247 9.58165 167.556 9.93686 167.887 10.2686L168.284 10.6656C169.147 11.528 170.141 12.2442 171.228 12.7878C171.401 12.874 171.599 12.874 171.772 12.7878C172.859 12.2442 173.853 11.528 174.716 10.6656L175.113 10.2686C175.444 9.93686 175.753 9.58165 176.035 9.20565L176.426 8.68382C176.962 7.96901 177.351 7.15217 177.569 6.28095L177.636 6.01226C177.725 5.65634 177.77 5.29055 177.77 4.92317V4.6363C177.77 3.84931 177.515 3.08738 177.048 2.46491L176.855 2.20805C176.485 1.71404 175.962 1.37074 175.381 1.22544C174.778 1.07469 174.14 1.14377 173.579 1.42404L173.236 1.59566C172.792 1.8176 172.424 2.18181 172.195 2.64068C171.785 3.46022 171.212 3.45495 170.805 2.64068C170.576 2.18181 170.208 1.8176 169.764 1.59566L169.421 1.42404Z" fill="#687684"/>
<path fill-rule="evenodd" clip-rule="evenodd" d="M7 10.25C7.27614 10.25 7.5 10.4739 7.5 10.75V12.7079C10.2487 11.1024 11.9025 9.96659 12.8999 8.97494C13.4787 8.39946 13.7971 7.9087 13.982 7.44074C14.1679 6.97021 14.25 6.44448 14.25 5.75C14.25 3.26472 12.2353 1.25 9.75 1.25H6.25C3.76472 1.25 1.75 3.26472 1.75 5.75C1.75 8.23528 3.76472 10.25 6.25 10.25H7ZM7.5 14.1529C14.1641 10.3177 15.5 8.74691 15.5 5.75C15.5 2.57436 12.9256 0 9.75 0H6.25C3.07436 0 0.5 2.57436 0.5 5.75C0.5 8.92564 3.07436 11.5 6.25 11.5V14.0086C6.25 14.3911 6.66196 14.6318 6.9943 14.4424C7.16618 14.3445 7.33473 14.248 7.5 14.1529Z" fill="#687684"/>
<path d="M84.3536 0.969689C84.1583 0.774427 83.8417 0.774427 83.6464 0.969689L81.0581 3.55808C80.814 3.80216 80.814 4.19788 81.0581 4.44196C81.3021 4.68604 81.6979 4.68604 81.9419 4.44196L83.375 3.0089V10.5C83.375 12.2259 84.7741 13.625 86.5 13.625H90.5C90.8452 13.625 91.125 13.3452 91.125 13C91.125 12.6548 90.8452 12.375 90.5 12.375H86.5C85.4645 12.375 84.625 11.5356 84.625 10.5V3.0089L86.0581 4.44196C86.3021 4.68604 86.6979 4.68604 86.9419 4.44196C87.186 4.19788 87.186 3.80216 86.9419 3.55808L84.3536 0.969689Z" fill="#687684"/>
<path d="M95.2714 13.6553C95.4667 13.8506 95.7833 13.8506 95.9786 13.6553L98.5669 11.0669C98.811 10.8228 98.811 10.4271 98.5669 10.183C98.3229 9.93896 97.9271 9.93896 97.6831 10.183L96.25 11.6161V4.12498C96.25 2.39909 94.8509 0.999981 93.125 0.999981H89.125C88.7798 0.999981 88.5 1.2798 88.5 1.62498C88.5 1.97016 88.7798 2.24998 89.125 2.24998H93.125C94.1605 2.24998 95 3.08945 95 4.12498V11.6161L93.5669 10.183C93.3229 9.93896 92.9271 9.93896 92.6831 10.183C92.439 10.4271 92.439 10.8228 92.6831 11.0669L95.2714 13.6553Z" fill="#687684"/>
<path fill-rule="evenodd" clip-rule="evenodd" d="M252.271 0.146447C252.467 -0.0488154 252.783 -0.0488157 252.979 0.146446L256.567 3.73484C256.811 3.97891 256.811 4.37464 256.567 4.61872C256.323 4.8628 255.927 4.8628 255.683 4.61872L253.25 2.18566V9.67678C253.25 10.022 252.97 10.3018 252.625 10.3018C252.28 10.3018 252 10.022 252 9.67678V2.18566L249.567 4.61872C249.323 4.8628 248.927 4.8628 248.683 4.61872C248.439 4.37464 248.439 3.97891 248.683 3.73484L252.271 0.146447ZM245.625 8.05178C245.97 8.05178 246.25 8.3316 246.25 8.67678V12.6768C246.25 13.16 246.642 13.5518 247.125 13.5518H258.125C258.608 13.5518 259 13.16 259 12.6768V8.67678C259 8.3316 259.28 8.05178 259.625 8.05178C259.97 8.05178 260.25 8.3316 260.25 8.67678V12.6768C260.25 13.8504 259.299 14.8018 258.125 14.8018H247.125C245.951 14.8018 245 13.8504 245 12.6768V8.67678C245 8.3316 245.28 8.05178 245.625 8.05178Z" fill="#687684"/>
<path d="M21.9648 11V3.7168H21.8711L19.7207 5.27539V4.16211L21.9707 2.54492H23.0195V11H21.9648ZM31.0328 11.1934C30.3141 11.1934 29.7047 10.9961 29.2047 10.6016C28.7086 10.2031 28.3941 9.66406 28.2613 8.98438H29.3453C29.4586 9.37891 29.6656 9.68945 29.9664 9.91602C30.2711 10.1426 30.6305 10.2559 31.0445 10.2559C31.732 10.2559 32.2652 9.95898 32.6441 9.36523C33.027 8.77148 33.232 7.91211 33.2594 6.78711H33.2125H33.1891H33.1656C32.9586 7.19727 32.6578 7.51758 32.2633 7.74805C31.8687 7.97461 31.4195 8.08789 30.9156 8.08789C30.1109 8.08789 29.4469 7.82227 28.9234 7.29102C28.4 6.75586 28.1383 6.07812 28.1383 5.25781C28.1383 4.40625 28.4156 3.70898 28.9703 3.16602C29.525 2.61914 30.2359 2.3457 31.1031 2.3457C31.7359 2.3457 32.2906 2.50977 32.7672 2.83789C33.2437 3.16602 33.6129 3.64258 33.8746 4.26758C34.148 4.9082 34.2848 5.69336 34.2848 6.62305C34.2848 8.07617 34.0016 9.20117 33.4352 9.99805C32.8687 10.7949 32.068 11.1934 31.0328 11.1934ZM29.732 6.63477C30.0875 6.99414 30.5445 7.17383 31.1031 7.17383C31.6617 7.17383 32.1207 6.99414 32.4801 6.63477C32.8434 6.27539 33.025 5.81641 33.025 5.25781C33.025 4.69141 32.8414 4.21875 32.4742 3.83984C32.1109 3.46094 31.6578 3.27148 31.1148 3.27148C30.5719 3.27148 30.1168 3.45898 29.7496 3.83398C29.3863 4.20508 29.2047 4.66797 29.2047 5.22266C29.2047 5.80078 29.3805 6.27148 29.732 6.63477ZM38.5258 11.1992C37.5727 11.1992 36.8344 10.8125 36.3109 10.0391C35.7875 9.26562 35.5258 8.17578 35.5258 6.76953C35.5258 5.375 35.7895 4.28906 36.3168 3.51172C36.8441 2.73437 37.5805 2.3457 38.5258 2.3457C39.4672 2.3457 40.1996 2.73633 40.723 3.51758C41.2504 4.29883 41.5141 5.38867 41.5141 6.78711C41.5141 8.18945 41.2523 9.27539 40.7289 10.0449C40.2094 10.8145 39.475 11.1992 38.5258 11.1992ZM37.0844 9.37109C37.4203 9.97656 37.9008 10.2793 38.5258 10.2793C39.1508 10.2793 39.6273 9.97852 39.9555 9.37695C40.2875 8.77148 40.4535 7.90234 40.4535 6.76953C40.4535 5.64844 40.2855 4.78516 39.9496 4.17969C39.6176 3.57422 39.143 3.27148 38.5258 3.27148C37.9086 3.27148 37.4301 3.57617 37.0902 4.18555C36.7543 4.79102 36.5863 5.65234 36.5863 6.76953C36.5863 7.89844 36.7523 8.76562 37.0844 9.37109ZM45.9309 11.1934C45.2941 11.1934 44.7395 11.0293 44.2668 10.7012C43.7941 10.3691 43.425 9.89258 43.1594 9.27148C42.8859 8.63086 42.7492 7.8457 42.7492 6.91602C42.7492 5.46289 43.0324 4.33789 43.5988 3.54102C44.1652 2.74414 44.966 2.3457 46.0012 2.3457C46.7199 2.3457 47.3273 2.54492 47.8234 2.94336C48.3234 3.33789 48.6398 3.875 48.7727 4.55469H47.6887C47.5754 4.16016 47.3664 3.84961 47.0617 3.62305C46.7609 3.39648 46.4035 3.2832 45.9895 3.2832C45.302 3.2832 44.7668 3.58008 44.384 4.17383C44.0051 4.76758 43.802 5.62695 43.7746 6.75195H43.8684C44.0754 6.3418 44.3762 6.02344 44.7707 5.79688C45.1652 5.56641 45.6145 5.45117 46.1184 5.45117C46.923 5.45117 47.5871 5.71875 48.1105 6.25391C48.634 6.78516 48.8957 7.46094 48.8957 8.28125C48.8957 9.13281 48.6184 9.83203 48.0637 10.3789C47.509 10.9219 46.798 11.1934 45.9309 11.1934ZM44.5539 9.69922C44.9211 10.0781 45.3762 10.2676 45.9191 10.2676C46.4621 10.2676 46.9152 10.082 47.2785 9.71094C47.6457 9.33594 47.8293 8.87109 47.8293 8.31641C47.8293 7.73828 47.6516 7.26953 47.2961 6.91016C46.9445 6.54688 46.4895 6.36523 45.9309 6.36523C45.3723 6.36523 44.9113 6.54492 44.548 6.9043C44.1887 7.26367 44.009 7.72266 44.009 8.28125C44.009 8.84766 44.1906 9.32031 44.5539 9.69922Z" fill="#687684"/>
<path d="M103.965 11V3.7168H103.871L101.721 5.27539V4.16211L103.971 2.54492H105.02V11H103.965ZM110.279 4.92383C110.279 4.17383 110.533 3.55664 111.041 3.07227C111.552 2.58789 112.201 2.3457 112.986 2.3457C113.744 2.3457 114.379 2.57422 114.89 3.03125C115.406 3.48437 115.664 4.04688 115.664 4.71875C115.664 5.16016 115.539 5.59375 115.289 6.01953C115.039 6.44531 114.568 7.0293 113.877 7.77148L111.843 9.95703V10.0508H115.804V11H110.332V10.2734L113.255 7.08008C113.798 6.49023 114.16 6.04102 114.339 5.73242C114.519 5.42383 114.609 5.09961 114.609 4.75977C114.609 4.33789 114.449 3.98438 114.129 3.69922C113.812 3.41016 113.421 3.26562 112.957 3.26562C112.461 3.26562 112.06 3.41797 111.755 3.72266C111.451 4.02734 111.298 4.42773 111.298 4.92383V4.92969H110.279V4.92383ZM120.971 11V9.24805H116.852V8.28711C117.625 6.91211 118.832 4.99805 120.473 2.54492H122.002V8.30469H123.204V9.24805H122.002V11H120.971ZM117.93 8.24023V8.31055H120.977V3.52344H120.907C119.993 4.85156 119 6.42383 117.93 8.24023ZM127.234 11.1934C126.515 11.1934 125.905 10.9961 125.405 10.6016C124.909 10.2031 124.595 9.66406 124.462 8.98438H125.546C125.659 9.37891 125.866 9.68945 126.167 9.91602C126.472 10.1426 126.831 10.2559 127.245 10.2559C127.933 10.2559 128.466 9.95898 128.845 9.36523C129.228 8.77148 129.433 7.91211 129.46 6.78711H129.413H129.39H129.366C129.159 7.19727 128.859 7.51758 128.464 7.74805C128.07 7.97461 127.62 8.08789 127.116 8.08789C126.312 8.08789 125.648 7.82227 125.124 7.29102C124.601 6.75586 124.339 6.07812 124.339 5.25781C124.339 4.40625 124.616 3.70898 125.171 3.16602C125.726 2.61914 126.437 2.3457 127.304 2.3457C127.937 2.3457 128.491 2.50977 128.968 2.83789C129.445 3.16602 129.814 3.64258 130.075 4.26758C130.349 4.9082 130.486 5.69336 130.486 6.62305C130.486 8.07617 130.202 9.20117 129.636 9.99805C129.07 10.7949 128.269 11.1934 127.234 11.1934ZM125.933 6.63477C126.288 6.99414 126.745 7.17383 127.304 7.17383C127.862 7.17383 128.321 6.99414 128.681 6.63477C129.044 6.27539 129.226 5.81641 129.226 5.25781C129.226 4.69141 129.042 4.21875 128.675 3.83984C128.312 3.46094 127.859 3.27148 127.316 3.27148C126.773 3.27148 126.318 3.45898 125.95 3.83398C125.587 4.20508 125.405 4.66797 125.405 5.22266C125.405 5.80078 125.581 6.27148 125.933 6.63477Z" fill="#687684"/>
<path d="M183.295 11L187.092 3.57031V3.48828H182.568V2.54492H188.164V3.52344L184.402 11H183.295ZM196.435 11V9.24805H192.316V8.28711C193.089 6.91211 194.296 4.99805 195.937 2.54492H197.466V8.30469H198.668V9.24805H197.466V11H196.435ZM193.394 8.24023V8.31055H196.441V3.52344H196.371C195.457 4.85156 194.464 6.42383 193.394 8.24023ZM202.985 11.1934C202.348 11.1934 201.793 11.0293 201.321 10.7012C200.848 10.3691 200.479 9.89258 200.213 9.27148C199.94 8.63086 199.803 7.8457 199.803 6.91602C199.803 5.46289 200.086 4.33789 200.653 3.54102C201.219 2.74414 202.02 2.3457 203.055 2.3457C203.774 2.3457 204.381 2.54492 204.877 2.94336C205.377 3.33789 205.694 3.875 205.827 4.55469H204.743C204.629 4.16016 204.42 3.84961 204.116 3.62305C203.815 3.39648 203.457 3.2832 203.043 3.2832C202.356 3.2832 201.821 3.58008 201.438 4.17383C201.059 4.76758 200.856 5.62695 200.829 6.75195H200.922C201.129 6.3418 201.43 6.02344 201.825 5.79688C202.219 5.56641 202.668 5.45117 203.172 5.45117C203.977 5.45117 204.641 5.71875 205.164 6.25391C205.688 6.78516 205.95 7.46094 205.95 8.28125C205.95 9.13281 205.672 9.83203 205.118 10.3789C204.563 10.9219 203.852 11.1934 202.985 11.1934ZM201.608 9.69922C201.975 10.0781 202.43 10.2676 202.973 10.2676C203.516 10.2676 203.969 10.082 204.332 9.71094C204.7 9.33594 204.883 8.87109 204.883 8.31641C204.883 7.73828 204.705 7.26953 204.35 6.91016C203.998 6.54688 203.543 6.36523 202.985 6.36523C202.426 6.36523 201.965 6.54492 201.602 6.9043C201.243 7.26367 201.063 7.72266 201.063 8.28125C201.063 8.84766 201.245 9.32031 201.608 9.69922ZM209.37 11V3.7168H209.277L207.126 5.27539V4.16211L209.376 2.54492H210.425V11H209.37Z" fill="#687684"/>
</svg>
