<svg width="306" height="16" viewBox="0 0 306 16" fill="none" xmlns="http://www.w3.org/2000/svg">
<path fill-rule="evenodd" clip-rule="evenodd" d="M7 11.0973C7.27614 11.0973 7.5 11.3287 7.5 11.6142V13.6384C10.2487 11.9785 11.9025 10.8043 12.8999 9.77901C13.4787 9.18403 13.7971 8.67665 13.982 8.19283C14.1679 7.70636 14.25 7.16282 14.25 6.44481C14.25 3.87533 12.2353 1.79235 9.75 1.79235H6.25C3.76472 1.79235 1.75 3.87533 1.75 6.44481C1.75 9.01429 3.76472 11.0973 6.25 11.0973H7ZM7.5 15.1324C14.1641 11.1673 15.5 9.54325 15.5 6.44481C15.5 3.16158 12.9256 0.5 9.75 0.5H6.25C3.07436 0.5 0.5 3.16158 0.5 6.44481C0.5 9.72803 3.07436 12.3896 6.25 12.3896V14.9832C6.25 15.3787 6.66196 15.6275 6.9943 15.4317C7.16618 15.3305 7.33473 15.2307 7.5 15.1324Z" fill="#687684"/>
<path d="M84.5029 2.13541C84.3063 1.95486 83.9875 1.95487 83.7908 2.13541L81.1843 4.52864C80.9386 4.75432 80.9386 5.12021 81.1843 5.34589C81.4301 5.57156 81.8286 5.57156 82.0744 5.34589L83.5175 4.02087V10.9472C83.5175 12.543 84.9264 13.8366 86.6643 13.8366H90.6923C91.0399 13.8366 91.3217 13.5779 91.3217 13.2587C91.3217 12.9396 91.0399 12.6808 90.6923 12.6808H86.6643C85.6216 12.6808 84.7762 11.9047 84.7762 10.9472V4.02087L86.2193 5.34589C86.4651 5.57156 86.8636 5.57156 87.1094 5.34589C87.3552 5.12021 87.3552 4.75432 87.1094 4.52864L84.5029 2.13541Z" fill="#687684"/>
<path d="M95.4971 13.8646C95.6937 14.0451 96.0125 14.0451 96.2092 13.8646L98.8157 11.4714C99.0614 11.2457 99.0614 10.8798 98.8157 10.6541C98.5699 10.4284 98.1714 10.4284 97.9256 10.6541L96.4825 11.9791V5.0528C96.4825 3.45704 95.0736 2.16341 93.3357 2.16341H89.3077C88.9601 2.16341 88.6783 2.42214 88.6783 2.74129C88.6783 3.06044 88.9601 3.31917 89.3077 3.31917H93.3357C94.3784 3.31917 95.2238 4.09534 95.2238 5.0528V11.9791L93.7807 10.6541C93.5349 10.4284 93.1364 10.4284 92.8906 10.6541C92.6448 10.8798 92.6448 11.2457 92.8906 11.4714L95.4971 13.8646Z" fill="#687684"/>
<path d="M184.672 8.10352V7.20117H185.697C186.178 7.20117 186.57 7.06055 186.875 6.7793C187.184 6.49805 187.338 6.13867 187.338 5.70117C187.338 5.27148 187.189 4.92578 186.893 4.66406C186.596 4.39844 186.203 4.26562 185.715 4.26562C185.227 4.26562 184.832 4.39453 184.531 4.65234C184.23 4.90625 184.059 5.25977 184.016 5.71289H182.99C183.045 4.97852 183.318 4.40039 183.811 3.97852C184.303 3.55664 184.951 3.3457 185.756 3.3457C186.24 3.3457 186.686 3.44531 187.092 3.64453C187.502 3.83984 187.824 4.10742 188.059 4.44727C188.293 4.78711 188.41 5.1582 188.41 5.56055C188.41 6.06445 188.279 6.49023 188.018 6.83789C187.756 7.18555 187.393 7.41602 186.928 7.5293V7.62305C187.502 7.69727 187.953 7.92188 188.281 8.29688C188.609 8.66797 188.773 9.14258 188.773 9.7207C188.773 10.416 188.486 11.0039 187.912 11.4844C187.338 11.9609 186.633 12.1992 185.797 12.1992C184.938 12.1992 184.236 11.9805 183.693 11.543C183.15 11.1016 182.859 10.5195 182.82 9.79688H183.84C183.887 10.2461 184.086 10.6055 184.438 10.875C184.789 11.1445 185.238 11.2793 185.785 11.2793C186.34 11.2793 186.795 11.1309 187.15 10.834C187.51 10.5371 187.689 10.1562 187.689 9.69141C187.689 9.20312 187.516 8.81641 187.168 8.53125C186.82 8.24609 186.346 8.10352 185.744 8.10352H184.672Z" fill="#CE395F"/>
<path d="M103.965 12V4.7168H103.871L101.721 6.27539V5.16211L103.971 3.54492H105.02V12H103.965Z" fill="#687684"/>
<path d="M21.9648 12V4.7168H21.8711L19.7207 6.27539V5.16211L21.9707 3.54492H23.0195V12H21.9648Z" fill="#687684"/>
<path d="M169.551 1.37525L169.925 1.56219C170.542 1.87051 171.042 2.3705 171.35 2.98713C171.412 3.11073 171.588 3.11073 171.65 2.98713C171.958 2.3705 172.458 1.87051 173.075 1.56219L173.449 1.37525C174.208 0.995802 175.077 0.900344 175.901 1.10613C176.693 1.30412 177.392 1.76869 177.882 2.42177L178.092 2.70156C178.681 3.48733 179 4.44304 179 5.42525V5.73774C179 6.18554 178.945 6.63165 178.836 7.06609L178.763 7.35877C178.507 8.38382 178.048 9.3473 177.414 10.1926L176.988 10.761C176.663 11.1943 176.308 11.604 175.925 11.9869L175.492 12.4193C174.504 13.4077 173.363 14.2303 172.112 14.8555C171.727 15.0482 171.273 15.0482 170.888 14.8555C169.637 14.2303 168.496 13.4077 167.508 12.4193L167.075 11.9869C166.692 11.604 166.337 11.1943 166.012 10.761L165.586 10.1926C164.952 9.3473 164.493 8.38382 164.237 7.35877L164.164 7.06609C164.055 6.63165 164 6.18554 164 5.73774V5.42525C164 4.44304 164.319 3.48733 164.908 2.70156L165.118 2.42177C165.608 1.76869 166.307 1.30412 167.099 1.10613C167.923 0.900344 168.792 0.995802 169.551 1.37525Z" fill="#CE395F"/>
<path fill-rule="evenodd" clip-rule="evenodd" d="M253.271 1.14645C253.467 0.951185 253.783 0.951184 253.979 1.14645L257.567 4.73484C257.811 4.97891 257.811 5.37464 257.567 5.61872C257.323 5.8628 256.927 5.8628 256.683 5.61872L254.25 3.18566V10.6768C254.25 11.022 253.97 11.3018 253.625 11.3018C253.28 11.3018 253 11.022 253 10.6768V3.18566L250.567 5.61872C250.323 5.8628 249.927 5.8628 249.683 5.61872C249.439 5.37464 249.439 4.97891 249.683 4.73484L253.271 1.14645ZM246.625 9.05178C246.97 9.05178 247.25 9.3316 247.25 9.67678V13.6768C247.25 14.16 247.642 14.5518 248.125 14.5518H259.125C259.608 14.5518 260 14.16 260 13.6768V9.67678C260 9.3316 260.28 9.05178 260.625 9.05178C260.97 9.05178 261.25 9.3316 261.25 9.67678V13.6768C261.25 14.8504 260.299 15.8018 259.125 15.8018H248.125C246.951 15.8018 246 14.8504 246 13.6768V9.67678C246 9.3316 246.28 9.05178 246.625 9.05178Z" fill="#687684"/>
<path d="M301.125 1C301.47 1 301.75 1.27982 301.75 1.625V13.625C301.75 13.9702 301.47 14.25 301.125 14.25C300.78 14.25 300.5 13.9702 300.5 13.625V1.625C300.5 1.27982 300.78 1 301.125 1Z" fill="#687684"/>
<path d="M297.625 6.5C297.97 6.5 298.25 6.77982 298.25 7.125V13.625C298.25 13.9702 297.97 14.25 297.625 14.25C297.28 14.25 297 13.9702 297 13.625V7.125C297 6.77982 297.28 6.5 297.625 6.5Z" fill="#687684"/>
<path d="M305.25 5.125C305.25 4.77982 304.97 4.5 304.625 4.5C304.28 4.5 304 4.77982 304 5.125V13.625C304 13.9702 304.28 14.25 304.625 14.25C304.97 14.25 305.25 13.9702 305.25 13.625V5.125Z" fill="#687684"/>
</svg>
