<svg width="261" height="15" viewBox="0 0 261 15" fill="none" xmlns="http://www.w3.org/2000/svg">
<path fill-rule="evenodd" clip-rule="evenodd" d="M167.301 0.116975C168.209 -0.110107 169.168 -0.00392529 170.001 0.412501L170.344 0.584118C170.759 0.791337 171.123 1.07457 171.421 1.41413C171.463 1.46168 171.537 1.46168 171.579 1.41413C171.877 1.07457 172.241 0.791337 172.656 0.584118L172.999 0.412501C173.832 -0.00392529 174.791 -0.110107 175.699 0.116975C176.572 0.335201 177.334 0.844888 177.863 1.54996L178.055 1.80682C178.671 2.62707 179 3.61989 179 4.6363V4.92317C179 5.37799 178.944 5.83129 178.834 6.27303L178.767 6.54171C178.514 7.55255 178.061 8.50474 177.433 9.34191L177.042 9.86374C176.727 10.2833 176.383 10.6803 176.012 11.0517L175.615 11.4486C174.662 12.401 173.561 13.1951 172.352 13.7993C171.817 14.0669 171.183 14.0669 170.648 13.7993C169.439 13.1951 168.338 12.401 167.385 11.4486L166.988 11.0517C166.617 10.6803 166.273 10.2833 165.958 9.86374L165.567 9.34191C164.939 8.50474 164.486 7.55255 164.233 6.54171L164.166 6.27303C164.056 5.83129 164 5.37799 164 4.92317V4.6363C164 3.61989 164.329 2.62707 164.945 1.80682L165.137 1.54996C165.666 0.844888 166.428 0.335201 167.301 0.116975ZM169.421 1.42404C168.86 1.14377 168.222 1.07469 167.619 1.22544C167.038 1.37074 166.515 1.71404 166.145 2.20805L165.952 2.46491C165.485 3.08738 165.23 3.84931 165.23 4.6363V4.92317C165.23 5.29055 165.275 5.65634 165.364 6.01226L165.431 6.28095C165.649 7.15217 166.038 7.96901 166.574 8.68382L166.965 9.20565C167.247 9.58165 167.556 9.93686 167.887 10.2686L168.284 10.6656C169.147 11.528 170.141 12.2442 171.228 12.7878C171.401 12.874 171.599 12.874 171.772 12.7878C172.859 12.2442 173.853 11.528 174.716 10.6656L175.113 10.2686C175.444 9.93686 175.753 9.58165 176.035 9.20565L176.426 8.68382C176.962 7.96901 177.351 7.15217 177.569 6.28095L177.636 6.01226C177.725 5.65634 177.77 5.29055 177.77 4.92317V4.6363C177.77 3.84931 177.515 3.08738 177.048 2.46491L176.855 2.20805C176.485 1.71404 175.962 1.37074 175.381 1.22544C174.778 1.07469 174.14 1.14377 173.579 1.42404L173.236 1.59566C172.792 1.8176 172.424 2.18181 172.195 2.64068C171.785 3.46022 171.212 3.45495 170.805 2.64068C170.576 2.18181 170.208 1.8176 169.764 1.59566L169.421 1.42404Z" fill="#687684"/>
<path fill-rule="evenodd" clip-rule="evenodd" d="M7 10.25C7.27614 10.25 7.5 10.4739 7.5 10.75V12.7079C10.2487 11.1024 11.9025 9.96659 12.8999 8.97494C13.4787 8.39946 13.7971 7.9087 13.982 7.44074C14.1679 6.97021 14.25 6.44448 14.25 5.75C14.25 3.26472 12.2353 1.25 9.75 1.25H6.25C3.76472 1.25 1.75 3.26472 1.75 5.75C1.75 8.23528 3.76472 10.25 6.25 10.25H7ZM7.5 14.1529C14.1641 10.3177 15.5 8.74691 15.5 5.75C15.5 2.57436 12.9256 0 9.75 0H6.25C3.07436 0 0.5 2.57436 0.5 5.75C0.5 8.92564 3.07436 11.5 6.25 11.5V14.0086C6.25 14.3911 6.66196 14.6318 6.9943 14.4424C7.16618 14.3445 7.33473 14.248 7.5 14.1529Z" fill="#687684"/>
<path d="M84.3536 0.969689C84.1583 0.774427 83.8417 0.774427 83.6464 0.969689L81.0581 3.55808C80.814 3.80216 80.814 4.19788 81.0581 4.44196C81.3021 4.68604 81.6979 4.68604 81.9419 4.44196L83.375 3.0089V10.5C83.375 12.2259 84.7741 13.625 86.5 13.625H90.5C90.8452 13.625 91.125 13.3452 91.125 13C91.125 12.6548 90.8452 12.375 90.5 12.375H86.5C85.4645 12.375 84.625 11.5356 84.625 10.5V3.0089L86.0581 4.44196C86.3021 4.68604 86.6979 4.68604 86.9419 4.44196C87.186 4.19788 87.186 3.80216 86.9419 3.55808L84.3536 0.969689Z" fill="#687684"/>
<path d="M95.2714 13.6553C95.4667 13.8506 95.7833 13.8506 95.9786 13.6553L98.5669 11.0669C98.811 10.8228 98.811 10.4271 98.5669 10.183C98.3229 9.93896 97.9271 9.93896 97.6831 10.183L96.25 11.6161V4.12498C96.25 2.39909 94.8509 0.999981 93.125 0.999981H89.125C88.7798 0.999981 88.5 1.2798 88.5 1.62498C88.5 1.97016 88.7798 2.24998 89.125 2.24998H93.125C94.1605 2.24998 95 3.08945 95 4.12498V11.6161L93.5669 10.183C93.3229 9.93896 92.9271 9.93896 92.6831 10.183C92.439 10.4271 92.439 10.8228 92.6831 11.0669L95.2714 13.6553Z" fill="#687684"/>
<path fill-rule="evenodd" clip-rule="evenodd" d="M252.271 0.146447C252.467 -0.0488154 252.783 -0.0488157 252.979 0.146446L256.567 3.73484C256.811 3.97891 256.811 4.37464 256.567 4.61872C256.323 4.8628 255.927 4.8628 255.683 4.61872L253.25 2.18566V9.67678C253.25 10.022 252.97 10.3018 252.625 10.3018C252.28 10.3018 252 10.022 252 9.67678V2.18566L249.567 4.61872C249.323 4.8628 248.927 4.8628 248.683 4.61872C248.439 4.37464 248.439 3.97891 248.683 3.73484L252.271 0.146447ZM245.625 8.05178C245.97 8.05178 246.25 8.3316 246.25 8.67678V12.6768C246.25 13.16 246.642 13.5518 247.125 13.5518H258.125C258.608 13.5518 259 13.16 259 12.6768V8.67678C259 8.3316 259.28 8.05178 259.625 8.05178C259.97 8.05178 260.25 8.3316 260.25 8.67678V12.6768C260.25 13.8504 259.299 14.8018 258.125 14.8018H247.125C245.951 14.8018 245 13.8504 245 12.6768V8.67678C245 8.3316 245.28 8.05178 245.625 8.05178Z" fill="#687684"/>
<path d="M19.8906 4.92383C19.8906 4.17383 20.1445 3.55664 20.6523 3.07227C21.1641 2.58789 21.8125 2.3457 22.5977 2.3457C23.3555 2.3457 23.9902 2.57422 24.502 3.03125C25.0176 3.48437 25.2754 4.04688 25.2754 4.71875C25.2754 5.16016 25.1504 5.59375 24.9004 6.01953C24.6504 6.44531 24.1797 7.0293 23.4883 7.77148L21.4551 9.95703V10.0508H25.416V11H19.9434V10.2734L22.8672 7.08008C23.4102 6.49023 23.7715 6.04102 23.9512 5.73242C24.1309 5.42383 24.2207 5.09961 24.2207 4.75977C24.2207 4.33789 24.0605 3.98438 23.7402 3.69922C23.4238 3.41016 23.0332 3.26562 22.5684 3.26562C22.0723 3.26562 21.6719 3.41797 21.3672 3.72266C21.0625 4.02734 20.9102 4.42773 20.9102 4.92383V4.92969H19.8906V4.92383ZM31.9773 10.5137C31.4109 10.9707 30.6805 11.1992 29.7859 11.1992C28.8914 11.1992 28.159 10.9707 27.5887 10.5137C27.0223 10.0527 26.7391 9.46094 26.7391 8.73828C26.7391 8.1875 26.8992 7.71484 27.2195 7.32031C27.5398 6.92578 27.9656 6.67969 28.4969 6.58203V6.48828C28.0672 6.37109 27.7234 6.14258 27.4656 5.80273C27.2117 5.46289 27.0848 5.0625 27.0848 4.60156C27.0848 3.94141 27.3367 3.40039 27.8406 2.97852C28.3484 2.55664 28.9969 2.3457 29.7859 2.3457C30.575 2.3457 31.2215 2.55664 31.7254 2.97852C32.2332 3.40039 32.4871 3.94141 32.4871 4.60156C32.4871 5.06641 32.3602 5.4668 32.1062 5.80273C31.8562 6.13867 31.5125 6.36719 31.075 6.48828V6.58203C31.6062 6.67969 32.032 6.92578 32.3523 7.32031C32.6727 7.71484 32.8328 8.1875 32.8328 8.73828C32.8328 9.46094 32.5477 10.0527 31.9773 10.5137ZM28.3562 9.8457C28.7234 10.1465 29.2 10.2969 29.7859 10.2969C30.3719 10.2969 30.8484 10.1465 31.2156 9.8457C31.5828 9.54102 31.7664 9.14648 31.7664 8.66211C31.7664 8.17773 31.5828 7.78516 31.2156 7.48438C30.8484 7.17969 30.3719 7.02734 29.7859 7.02734C29.2 7.02734 28.7234 7.17969 28.3562 7.48438C27.9891 7.78516 27.8055 8.17773 27.8055 8.66211C27.8055 9.14648 27.9891 9.54102 28.3562 9.8457ZM28.5789 5.74414C28.8836 6.00586 29.2859 6.13672 29.7859 6.13672C30.2859 6.13672 30.6883 6.00586 30.993 5.74414C31.2977 5.47852 31.45 5.13086 31.45 4.70117C31.45 4.26367 31.2977 3.91211 30.993 3.64648C30.6883 3.38086 30.2859 3.24805 29.7859 3.24805C29.2859 3.24805 28.8836 3.38086 28.5789 3.64648C28.2742 3.91211 28.1219 4.26367 28.1219 4.70117C28.1219 5.13086 28.2742 5.47852 28.5789 5.74414Z" fill="#687684"/>
<path d="M104.732 11.1992C103.932 11.1992 103.27 10.9746 102.746 10.5254C102.223 10.0723 101.938 9.48047 101.891 8.75H102.928C102.975 9.20703 103.164 9.57617 103.496 9.85742C103.832 10.1348 104.248 10.2734 104.744 10.2734C105.311 10.2734 105.766 10.0957 106.109 9.74023C106.457 9.38477 106.631 8.91797 106.631 8.33984C106.631 7.76172 106.457 7.29297 106.109 6.93359C105.766 6.57031 105.316 6.38867 104.762 6.38867C104.379 6.38867 104.035 6.47266 103.73 6.64062C103.426 6.80469 103.188 7.03711 103.016 7.33789H102.025L102.488 2.54492H107.205V3.48828H103.314L103.074 6.20117H103.168C103.578 5.7207 104.174 5.48047 104.955 5.48047C105.76 5.48047 106.416 5.74414 106.924 6.27148C107.432 6.79883 107.686 7.47852 107.686 8.31055C107.686 9.16992 107.412 9.86719 106.865 10.4023C106.318 10.9336 105.607 11.1992 104.732 11.1992Z" fill="#687684"/>
<path d="M182.891 4.92383C182.891 4.17383 183.145 3.55664 183.652 3.07227C184.164 2.58789 184.812 2.3457 185.598 2.3457C186.355 2.3457 186.99 2.57422 187.502 3.03125C188.018 3.48437 188.275 4.04688 188.275 4.71875C188.275 5.16016 188.15 5.59375 187.9 6.01953C187.65 6.44531 187.18 7.0293 186.488 7.77148L184.455 9.95703V10.0508H188.416V11H182.943V10.2734L185.867 7.08008C186.41 6.49023 186.771 6.04102 186.951 5.73242C187.131 5.42383 187.221 5.09961 187.221 4.75977C187.221 4.33789 187.061 3.98438 186.74 3.69922C186.424 3.41016 186.033 3.26562 185.568 3.26562C185.072 3.26562 184.672 3.41797 184.367 3.72266C184.062 4.02734 183.91 4.42773 183.91 4.92383V4.92969H182.891V4.92383ZM191.919 11V3.7168H191.825L189.675 5.27539V4.16211L191.925 2.54492H192.973V11H191.919Z" fill="#687684"/>
</svg>
