<svg width="261" height="15" viewBox="0 0 261 15" fill="none" xmlns="http://www.w3.org/2000/svg">
<path fill-rule="evenodd" clip-rule="evenodd" d="M167.301 0.116975C168.209 -0.110107 169.168 -0.00392529 170.001 0.412501L170.344 0.584118C170.759 0.791337 171.123 1.07457 171.421 1.41413C171.463 1.46168 171.537 1.46168 171.579 1.41413C171.877 1.07457 172.241 0.791337 172.656 0.584118L172.999 0.412501C173.832 -0.00392529 174.791 -0.110107 175.699 0.116975C176.572 0.335201 177.334 0.844888 177.863 1.54996L178.055 1.80682C178.671 2.62707 179 3.61989 179 4.6363V4.92317C179 5.37799 178.944 5.83129 178.834 6.27303L178.767 6.54171C178.514 7.55255 178.061 8.50474 177.433 9.34191L177.042 9.86374C176.727 10.2833 176.383 10.6803 176.012 11.0517L175.615 11.4486C174.662 12.401 173.561 13.1951 172.352 13.7993C171.817 14.0669 171.183 14.0669 170.648 13.7993C169.439 13.1951 168.338 12.401 167.385 11.4486L166.988 11.0517C166.617 10.6803 166.273 10.2833 165.958 9.86374L165.567 9.34191C164.939 8.50474 164.486 7.55255 164.233 6.54171L164.166 6.27303C164.056 5.83129 164 5.37799 164 4.92317V4.6363C164 3.61989 164.329 2.62707 164.945 1.80682L165.137 1.54996C165.666 0.844888 166.428 0.335201 167.301 0.116975ZM169.421 1.42404C168.86 1.14377 168.222 1.07469 167.619 1.22544C167.038 1.37074 166.515 1.71404 166.145 2.20805L165.952 2.46491C165.485 3.08738 165.23 3.84931 165.23 4.6363V4.92317C165.23 5.29055 165.275 5.65634 165.364 6.01226L165.431 6.28095C165.649 7.15217 166.038 7.96901 166.574 8.68382L166.965 9.20565C167.247 9.58165 167.556 9.93686 167.887 10.2686L168.284 10.6656C169.147 11.528 170.141 12.2442 171.228 12.7878C171.401 12.874 171.599 12.874 171.772 12.7878C172.859 12.2442 173.853 11.528 174.716 10.6656L175.113 10.2686C175.444 9.93686 175.753 9.58165 176.035 9.20565L176.426 8.68382C176.962 7.96901 177.351 7.15217 177.569 6.28095L177.636 6.01226C177.725 5.65634 177.77 5.29055 177.77 4.92317V4.6363C177.77 3.84931 177.515 3.08738 177.048 2.46491L176.855 2.20805C176.485 1.71404 175.962 1.37074 175.381 1.22544C174.778 1.07469 174.14 1.14377 173.579 1.42404L173.236 1.59566C172.792 1.8176 172.424 2.18181 172.195 2.64068C171.785 3.46022 171.212 3.45495 170.805 2.64068C170.576 2.18181 170.208 1.8176 169.764 1.59566L169.421 1.42404Z" fill="#687684"/>
<path fill-rule="evenodd" clip-rule="evenodd" d="M7 10.25C7.27614 10.25 7.5 10.4739 7.5 10.75V12.7079C10.2487 11.1024 11.9025 9.96659 12.8999 8.97494C13.4787 8.39946 13.7971 7.9087 13.982 7.44074C14.1679 6.97021 14.25 6.44448 14.25 5.75C14.25 3.26472 12.2353 1.25 9.75 1.25H6.25C3.76472 1.25 1.75 3.26472 1.75 5.75C1.75 8.23528 3.76472 10.25 6.25 10.25H7ZM7.5 14.1529C14.1641 10.3177 15.5 8.74691 15.5 5.75C15.5 2.57436 12.9256 0 9.75 0H6.25C3.07436 0 0.5 2.57436 0.5 5.75C0.5 8.92564 3.07436 11.5 6.25 11.5V14.0086C6.25 14.3911 6.66196 14.6318 6.9943 14.4424C7.16618 14.3445 7.33473 14.248 7.5 14.1529Z" fill="#687684"/>
<path d="M84.3536 0.969689C84.1583 0.774427 83.8417 0.774427 83.6464 0.969689L81.0581 3.55808C80.814 3.80216 80.814 4.19788 81.0581 4.44196C81.3021 4.68604 81.6979 4.68604 81.9419 4.44196L83.375 3.0089V10.5C83.375 12.2259 84.7741 13.625 86.5 13.625H90.5C90.8452 13.625 91.125 13.3452 91.125 13C91.125 12.6548 90.8452 12.375 90.5 12.375H86.5C85.4645 12.375 84.625 11.5356 84.625 10.5V3.0089L86.0581 4.44196C86.3021 4.68604 86.6979 4.68604 86.9419 4.44196C87.186 4.19788 87.186 3.80216 86.9419 3.55808L84.3536 0.969689Z" fill="#687684"/>
<path d="M95.2714 13.6553C95.4667 13.8506 95.7833 13.8506 95.9786 13.6553L98.5669 11.0669C98.811 10.8228 98.811 10.4271 98.5669 10.183C98.3229 9.93896 97.9271 9.93896 97.6831 10.183L96.25 11.6161V4.12498C96.25 2.39909 94.8509 0.999981 93.125 0.999981H89.125C88.7798 0.999981 88.5 1.2798 88.5 1.62498C88.5 1.97016 88.7798 2.24998 89.125 2.24998H93.125C94.1605 2.24998 95 3.08945 95 4.12498V11.6161L93.5669 10.183C93.3229 9.93896 92.9271 9.93896 92.6831 10.183C92.439 10.4271 92.439 10.8228 92.6831 11.0669L95.2714 13.6553Z" fill="#687684"/>
<path fill-rule="evenodd" clip-rule="evenodd" d="M252.271 0.146447C252.467 -0.0488154 252.783 -0.0488157 252.979 0.146446L256.567 3.73484C256.811 3.97891 256.811 4.37464 256.567 4.61872C256.323 4.8628 255.927 4.8628 255.683 4.61872L253.25 2.18566V9.67678C253.25 10.022 252.97 10.3018 252.625 10.3018C252.28 10.3018 252 10.022 252 9.67678V2.18566L249.567 4.61872C249.323 4.8628 248.927 4.8628 248.683 4.61872C248.439 4.37464 248.439 3.97891 248.683 3.73484L252.271 0.146447ZM245.625 8.05178C245.97 8.05178 246.25 8.3316 246.25 8.67678V12.6768C246.25 13.16 246.642 13.5518 247.125 13.5518H258.125C258.608 13.5518 259 13.16 259 12.6768V8.67678C259 8.3316 259.28 8.05178 259.625 8.05178C259.97 8.05178 260.25 8.3316 260.25 8.67678V12.6768C260.25 13.8504 259.299 14.8018 258.125 14.8018H247.125C245.951 14.8018 245 13.8504 245 12.6768V8.67678C245 8.3316 245.28 8.05178 245.625 8.05178Z" fill="#687684"/>
<path d="M23.8047 11V9.24805H19.6855V8.28711C20.459 6.91211 21.666 4.99805 23.3066 2.54492H24.8359V8.30469H26.0371V9.24805H24.8359V11H23.8047ZM20.7637 8.24023V8.31055H23.8105V3.52344H23.7402C22.8262 4.85156 21.834 6.42383 20.7637 8.24023ZM30.3543 11.1934C29.7176 11.1934 29.1629 11.0293 28.6902 10.7012C28.2176 10.3691 27.8484 9.89258 27.5828 9.27148C27.3094 8.63086 27.1727 7.8457 27.1727 6.91602C27.1727 5.46289 27.4559 4.33789 28.0223 3.54102C28.5887 2.74414 29.3895 2.3457 30.4246 2.3457C31.1434 2.3457 31.7508 2.54492 32.2469 2.94336C32.7469 3.33789 33.0633 3.875 33.1961 4.55469H32.1121C31.9988 4.16016 31.7898 3.84961 31.4852 3.62305C31.1844 3.39648 30.827 3.2832 30.4129 3.2832C29.7254 3.2832 29.1902 3.58008 28.8074 4.17383C28.4285 4.76758 28.2254 5.62695 28.198 6.75195H28.2918C28.4988 6.3418 28.7996 6.02344 29.1941 5.79688C29.5887 5.56641 30.0379 5.45117 30.5418 5.45117C31.3465 5.45117 32.0105 5.71875 32.534 6.25391C33.0574 6.78516 33.3191 7.46094 33.3191 8.28125C33.3191 9.13281 33.0418 9.83203 32.4871 10.3789C31.9324 10.9219 31.2215 11.1934 30.3543 11.1934ZM28.9773 9.69922C29.3445 10.0781 29.7996 10.2676 30.3426 10.2676C30.8855 10.2676 31.3387 10.082 31.702 9.71094C32.0691 9.33594 32.2527 8.87109 32.2527 8.31641C32.2527 7.73828 32.075 7.26953 31.7195 6.91016C31.368 6.54688 30.9129 6.36523 30.3543 6.36523C29.7957 6.36523 29.3348 6.54492 28.9715 6.9043C28.6121 7.26367 28.4324 7.72266 28.4324 8.28125C28.4324 8.84766 28.6141 9.32031 28.9773 9.69922Z" fill="#687684"/>
<path d="M103.965 11V3.7168H103.871L101.721 5.27539V4.16211L103.971 2.54492H105.02V11H103.965ZM112.325 10.5137C111.759 10.9707 111.028 11.1992 110.134 11.1992C109.239 11.1992 108.507 10.9707 107.936 10.5137C107.37 10.0527 107.087 9.46094 107.087 8.73828C107.087 8.1875 107.247 7.71484 107.567 7.32031C107.887 6.92578 108.313 6.67969 108.845 6.58203V6.48828C108.415 6.37109 108.071 6.14258 107.813 5.80273C107.559 5.46289 107.432 5.0625 107.432 4.60156C107.432 3.94141 107.684 3.40039 108.188 2.97852C108.696 2.55664 109.345 2.3457 110.134 2.3457C110.923 2.3457 111.569 2.55664 112.073 2.97852C112.581 3.40039 112.835 3.94141 112.835 4.60156C112.835 5.06641 112.708 5.4668 112.454 5.80273C112.204 6.13867 111.86 6.36719 111.423 6.48828V6.58203C111.954 6.67969 112.38 6.92578 112.7 7.32031C113.02 7.71484 113.18 8.1875 113.18 8.73828C113.18 9.46094 112.895 10.0527 112.325 10.5137ZM108.704 9.8457C109.071 10.1465 109.548 10.2969 110.134 10.2969C110.72 10.2969 111.196 10.1465 111.563 9.8457C111.93 9.54102 112.114 9.14648 112.114 8.66211C112.114 8.17773 111.93 7.78516 111.563 7.48438C111.196 7.17969 110.72 7.02734 110.134 7.02734C109.548 7.02734 109.071 7.17969 108.704 7.48438C108.337 7.78516 108.153 8.17773 108.153 8.66211C108.153 9.14648 108.337 9.54102 108.704 9.8457ZM108.927 5.74414C109.231 6.00586 109.634 6.13672 110.134 6.13672C110.634 6.13672 111.036 6.00586 111.341 5.74414C111.645 5.47852 111.798 5.13086 111.798 4.70117C111.798 4.26367 111.645 3.91211 111.341 3.64648C111.036 3.38086 110.634 3.24805 110.134 3.24805C109.634 3.24805 109.231 3.38086 108.927 3.64648C108.622 3.91211 108.47 4.26367 108.47 4.70117C108.47 5.13086 108.622 5.47852 108.927 5.74414Z" fill="#687684"/>
<path d="M184.672 7.10352V6.20117H185.697C186.178 6.20117 186.57 6.06055 186.875 5.7793C187.184 5.49805 187.338 5.13867 187.338 4.70117C187.338 4.27148 187.189 3.92578 186.893 3.66406C186.596 3.39844 186.203 3.26562 185.715 3.26562C185.227 3.26562 184.832 3.39453 184.531 3.65234C184.23 3.90625 184.059 4.25977 184.016 4.71289H182.99C183.045 3.97852 183.318 3.40039 183.811 2.97852C184.303 2.55664 184.951 2.3457 185.756 2.3457C186.24 2.3457 186.686 2.44531 187.092 2.64453C187.502 2.83984 187.824 3.10742 188.059 3.44727C188.293 3.78711 188.41 4.1582 188.41 4.56055C188.41 5.06445 188.279 5.49023 188.018 5.83789C187.756 6.18555 187.393 6.41602 186.928 6.5293V6.62305C187.502 6.69727 187.953 6.92188 188.281 7.29688C188.609 7.66797 188.773 8.14258 188.773 8.7207C188.773 9.41602 188.486 10.0039 187.912 10.4844C187.338 10.9609 186.633 11.1992 185.797 11.1992C184.938 11.1992 184.236 10.9805 183.693 10.543C183.15 10.1016 182.859 9.51953 182.82 8.79688H183.84C183.887 9.24609 184.086 9.60547 184.438 9.875C184.789 10.1445 185.238 10.2793 185.785 10.2793C186.34 10.2793 186.795 10.1309 187.15 9.83398C187.51 9.53711 187.689 9.15625 187.689 8.69141C187.689 8.20312 187.516 7.81641 187.168 7.53125C186.82 7.24609 186.346 7.10352 185.744 7.10352H184.672ZM193.155 11.1934C192.518 11.1934 191.964 11.0293 191.491 10.7012C191.018 10.3691 190.649 9.89258 190.384 9.27148C190.11 8.63086 189.973 7.8457 189.973 6.91602C189.973 5.46289 190.257 4.33789 190.823 3.54102C191.389 2.74414 192.19 2.3457 193.225 2.3457C193.944 2.3457 194.552 2.54492 195.048 2.94336C195.548 3.33789 195.864 3.875 195.997 4.55469H194.913C194.8 4.16016 194.591 3.84961 194.286 3.62305C193.985 3.39648 193.628 3.2832 193.214 3.2832C192.526 3.2832 191.991 3.58008 191.608 4.17383C191.229 4.76758 191.026 5.62695 190.999 6.75195H191.093C191.3 6.3418 191.6 6.02344 191.995 5.79688C192.389 5.56641 192.839 5.45117 193.343 5.45117C194.147 5.45117 194.811 5.71875 195.335 6.25391C195.858 6.78516 196.12 7.46094 196.12 8.28125C196.12 9.13281 195.843 9.83203 195.288 10.3789C194.733 10.9219 194.022 11.1934 193.155 11.1934ZM191.778 9.69922C192.145 10.0781 192.6 10.2676 193.143 10.2676C193.686 10.2676 194.139 10.082 194.503 9.71094C194.87 9.33594 195.054 8.87109 195.054 8.31641C195.054 7.73828 194.876 7.26953 194.52 6.91016C194.169 6.54688 193.714 6.36523 193.155 6.36523C192.596 6.36523 192.136 6.54492 191.772 6.9043C191.413 7.26367 191.233 7.72266 191.233 8.28125C191.233 8.84766 191.415 9.32031 191.778 9.69922ZM199.248 7.10352V6.20117H200.273C200.754 6.20117 201.146 6.06055 201.451 5.7793C201.759 5.49805 201.914 5.13867 201.914 4.70117C201.914 4.27148 201.765 3.92578 201.468 3.66406C201.171 3.39844 200.779 3.26562 200.291 3.26562C199.802 3.26562 199.408 3.39453 199.107 3.65234C198.806 3.90625 198.634 4.25977 198.591 4.71289H197.566C197.621 3.97852 197.894 3.40039 198.386 2.97852C198.879 2.55664 199.527 2.3457 200.332 2.3457C200.816 2.3457 201.261 2.44531 201.668 2.64453C202.078 2.83984 202.4 3.10742 202.634 3.44727C202.869 3.78711 202.986 4.1582 202.986 4.56055C202.986 5.06445 202.855 5.49023 202.593 5.83789C202.332 6.18555 201.968 6.41602 201.504 6.5293V6.62305C202.078 6.69727 202.529 6.92188 202.857 7.29688C203.185 7.66797 203.349 8.14258 203.349 8.7207C203.349 9.41602 203.062 10.0039 202.488 10.4844C201.914 10.9609 201.209 11.1992 200.373 11.1992C199.513 11.1992 198.812 10.9805 198.269 10.543C197.726 10.1016 197.435 9.51953 197.396 8.79688H198.416C198.462 9.24609 198.662 9.60547 199.013 9.875C199.365 10.1445 199.814 10.2793 200.361 10.2793C200.916 10.2793 201.371 10.1309 201.726 9.83398C202.086 9.53711 202.265 9.15625 202.265 8.69141C202.265 8.20312 202.091 7.81641 201.744 7.53125C201.396 7.24609 200.921 7.10352 200.32 7.10352H199.248Z" fill="#687684"/>
</svg>
