<svg width="261" height="15" viewBox="0 0 261 15" fill="none" xmlns="http://www.w3.org/2000/svg">
<path fill-rule="evenodd" clip-rule="evenodd" d="M7 10.25C7.27614 10.25 7.5 10.4739 7.5 10.75V12.7079C10.2487 11.1024 11.9025 9.96659 12.8999 8.97494C13.4787 8.39946 13.7971 7.9087 13.982 7.44074C14.1679 6.97021 14.25 6.44448 14.25 5.75C14.25 3.26472 12.2353 1.25 9.75 1.25H6.25C3.76472 1.25 1.75 3.26472 1.75 5.75C1.75 8.23528 3.76472 10.25 6.25 10.25H7ZM7.5 14.1529C14.1641 10.3177 15.5 8.74691 15.5 5.75C15.5 2.57436 12.9256 0 9.75 0H6.25C3.07436 0 0.5 2.57436 0.5 5.75C0.5 8.92564 3.07436 11.5 6.25 11.5V14.0086C6.25 14.3911 6.66196 14.6318 6.9943 14.4424C7.16618 14.3445 7.33473 14.248 7.5 14.1529Z" fill="#687684"/>
<path fill-rule="evenodd" clip-rule="evenodd" d="M84.5303 0.792912C84.2374 0.500019 83.7626 0.500019 83.4697 0.792912L80.8813 3.3813C80.5396 3.72301 80.5396 4.27703 80.8813 4.61874C81.223 4.96045 81.777 4.96045 82.1187 4.61874L83.125 3.61246V10.5C83.125 12.364 84.636 13.875 86.5 13.875H90.5C90.9832 13.875 91.375 13.4833 91.375 13C91.375 12.5168 90.9832 12.125 90.5 12.125H86.5C85.6025 12.125 84.875 11.3975 84.875 10.5V3.61246L85.8813 4.61874C86.223 4.96045 86.777 4.96045 87.1187 4.61874C87.4604 4.27703 87.4604 3.72301 87.1187 3.3813L84.5303 0.792912ZM89.125 0.749981C88.6418 0.749981 88.25 1.14173 88.25 1.62498C88.25 2.10823 88.6418 2.49998 89.125 2.49998H93.125C94.0225 2.49998 94.75 3.22752 94.75 4.12498V11.0125L93.7437 10.0063C93.402 9.66455 92.848 9.66455 92.5063 10.0063C92.1646 10.348 92.1646 10.902 92.5063 11.2437L95.0947 13.8321C95.3876 14.125 95.8624 14.125 96.1553 13.8321L98.7437 11.2437C99.0854 10.902 99.0854 10.348 98.7437 10.0063C98.402 9.66455 97.848 9.66455 97.5063 10.0063L96.5 11.0125V4.12498C96.5 2.26102 94.989 0.749981 93.125 0.749981H89.125Z" fill="#59BC6C"/>
<path fill-rule="evenodd" clip-rule="evenodd" d="M252.271 0.146447C252.467 -0.0488154 252.783 -0.0488157 252.979 0.146446L256.567 3.73484C256.811 3.97891 256.811 4.37464 256.567 4.61872C256.323 4.8628 255.927 4.8628 255.683 4.61872L253.25 2.18566V9.67678C253.25 10.022 252.97 10.3018 252.625 10.3018C252.28 10.3018 252 10.022 252 9.67678V2.18566L249.567 4.61872C249.323 4.8628 248.927 4.8628 248.683 4.61872C248.439 4.37464 248.439 3.97891 248.683 3.73484L252.271 0.146447ZM245.625 8.05178C245.97 8.05178 246.25 8.3316 246.25 8.67678V12.6768C246.25 13.16 246.642 13.5518 247.125 13.5518H258.125C258.608 13.5518 259 13.16 259 12.6768V8.67678C259 8.3316 259.28 8.05178 259.625 8.05178C259.97 8.05178 260.25 8.3316 260.25 8.67678V12.6768C260.25 13.8504 259.299 14.8018 258.125 14.8018H247.125C245.951 14.8018 245 13.8504 245 12.6768V8.67678C245 8.3316 245.28 8.05178 245.625 8.05178Z" fill="#687684"/>
<path d="M20.2949 11L24.0918 3.57031V3.48828H19.5684V2.54492H25.1641V3.52344L21.4023 11H20.2949Z" fill="#687684"/>
<path d="M103.965 11V3.7168H103.871L101.721 5.27539V4.16211L103.971 2.54492H105.02V11H103.965Z" fill="#59BC6C"/>
<path d="M184.672 7.10352V6.20117H185.697C186.178 6.20117 186.57 6.06055 186.875 5.7793C187.184 5.49805 187.338 5.13867 187.338 4.70117C187.338 4.27148 187.189 3.92578 186.893 3.66406C186.596 3.39844 186.203 3.26562 185.715 3.26562C185.227 3.26562 184.832 3.39453 184.531 3.65234C184.23 3.90625 184.059 4.25977 184.016 4.71289H182.99C183.045 3.97852 183.318 3.40039 183.811 2.97852C184.303 2.55664 184.951 2.3457 185.756 2.3457C186.24 2.3457 186.686 2.44531 187.092 2.64453C187.502 2.83984 187.824 3.10742 188.059 3.44727C188.293 3.78711 188.41 4.1582 188.41 4.56055C188.41 5.06445 188.279 5.49023 188.018 5.83789C187.756 6.18555 187.393 6.41602 186.928 6.5293V6.62305C187.502 6.69727 187.953 6.92188 188.281 7.29688C188.609 7.66797 188.773 8.14258 188.773 8.7207C188.773 9.41602 188.486 10.0039 187.912 10.4844C187.338 10.9609 186.633 11.1992 185.797 11.1992C184.938 11.1992 184.236 10.9805 183.693 10.543C183.15 10.1016 182.859 9.51953 182.82 8.79688H183.84C183.887 9.24609 184.086 9.60547 184.438 9.875C184.789 10.1445 185.238 10.2793 185.785 10.2793C186.34 10.2793 186.795 10.1309 187.15 9.83398C187.51 9.53711 187.689 9.15625 187.689 8.69141C187.689 8.20312 187.516 7.81641 187.168 7.53125C186.82 7.24609 186.346 7.10352 185.744 7.10352H184.672Z" fill="#CE395F"/>
<path d="M169.551 0.375254L169.925 0.562194C170.542 0.870508 171.042 1.3705 171.35 1.98713C171.412 2.11073 171.588 2.11073 171.65 1.98713C171.958 1.3705 172.458 0.870508 173.075 0.562194L173.449 0.375254C174.208 -0.00419754 175.077 -0.0996561 175.901 0.10613C176.693 0.304123 177.392 0.768694 177.882 1.42177L178.092 1.70156C178.681 2.48733 179 3.44304 179 4.42525V4.73774C179 5.18554 178.945 5.63165 178.836 6.06609L178.763 6.35877C178.507 7.38382 178.048 8.3473 177.414 9.19258L176.988 9.761C176.663 10.1943 176.308 10.604 175.925 10.9869L175.492 11.4193C174.504 12.4077 173.363 13.2303 172.112 13.8555C171.727 14.0482 171.273 14.0482 170.888 13.8555C169.637 13.2303 168.496 12.4077 167.508 11.4193L167.075 10.9869C166.692 10.604 166.337 10.1943 166.012 9.761L165.586 9.19258C164.952 8.3473 164.493 7.38382 164.237 6.35877L164.164 6.06609C164.055 5.63165 164 5.18554 164 4.73774V4.42525C164 3.44304 164.319 2.48733 164.908 1.70156L165.118 1.42177C165.608 0.768694 166.307 0.304123 167.099 0.10613C167.923 -0.0996561 168.792 -0.00419754 169.551 0.375254Z" fill="#CE395F"/>
</svg>
