<svg width="21" height="18" viewBox="0 0 21 18" fill="none" xmlns="http://www.w3.org/2000/svg">
<path fill-rule="evenodd" clip-rule="evenodd" d="M0.25 2C0.25 0.89543 1.14543 0 2.25 0H18.25C19.3546 0 20.25 0.895431 20.25 2V16C20.25 17.1046 19.3546 18 18.25 18H2.25C1.14543 18 0.25 17.1046 0.25 16V2ZM2.25 1.5H18.25C18.5261 1.5 18.75 1.72386 18.75 2V2.93195L10.3887 8.50616C10.3047 8.56215 10.1953 8.56215 10.1113 8.50616L1.75 2.93195V2C1.75 1.72386 1.97386 1.5 2.25 1.5ZM1.75 4.73472V16C1.75 16.2761 1.97386 16.5 2.25 16.5H18.25C18.5261 16.5 18.75 16.2761 18.75 16V4.73472L11.2207 9.75424C10.6329 10.1461 9.8671 10.1461 9.27927 9.75424L1.75 4.73472Z" fill="#687684"/>
</svg>
