<svg width="20" height="20" viewBox="0 0 20 20" fill="none" xmlns="http://www.w3.org/2000/svg">
<path fill-rule="evenodd" clip-rule="evenodd" d="M17.45 8.51762C17.45 10.301 17.9269 12.0519 18.8313 13.5889L19.8066 15.2464C20.0027 15.5798 19.7624 16 19.3756 16H14.6871C14.6308 16.3327 14.5372 16.6588 14.4075 16.9721C14.1813 17.518 13.8498 18.0141 13.432 18.432C13.0141 18.8498 12.518 19.1813 11.9721 19.4075C11.4261 19.6336 10.8409 19.75 10.25 19.75C9.65905 19.75 9.07389 19.6336 8.52792 19.4075C7.98196 19.1813 7.48588 18.8498 7.06802 18.432C6.65016 18.0141 6.31869 17.518 6.09254 16.9721C5.9628 16.6588 5.86918 16.3327 5.81294 16H1.12429C0.737558 16 0.497234 15.5798 0.693359 15.2464L1.66866 13.5889C2.57305 12.0519 3.04996 10.301 3.04996 8.51762V6.62069C3.04996 2.96418 6.27351 0 10.25 0C14.2264 0 17.45 2.96418 17.45 6.62069V8.51762ZM4.54996 6.62069C4.54996 3.90858 6.981 1.5 10.25 1.5C13.5189 1.5 15.95 3.90858 15.95 6.62069V8.51762C15.95 10.5685 16.4984 12.582 17.5385 14.3496L17.6269 14.5H2.87297L2.96146 14.3496C4.00151 12.582 4.54996 10.5685 4.54996 8.51762V6.62069ZM7.34526 16C7.3802 16.1353 7.42464 16.2683 7.47836 16.3981C7.62913 16.762 7.8501 17.0927 8.12868 17.3713C8.40726 17.6499 8.73797 17.8709 9.10195 18.0216C9.46593 18.1724 9.85603 18.25 10.25 18.25C10.644 18.25 11.0341 18.1724 11.3981 18.0216C11.762 17.8709 12.0927 17.6499 12.3713 17.3713C12.6499 17.0927 12.8709 16.762 13.0216 16.3981C13.0754 16.2683 13.1198 16.1353 13.1547 16H7.34526Z" fill="#687684"/>
</svg>
