<svg width="21" height="21" viewBox="0 0 21 21" fill="none" xmlns="http://www.w3.org/2000/svg">
<path fill-rule="evenodd" clip-rule="evenodd" d="M12.5554 0.883826C13.6293 -0.190115 15.3705 -0.190117 16.4445 0.883825L19.6161 4.0554C20.69 5.12934 20.69 6.87054 19.6161 7.94449L8.09566 19.4649C7.92687 19.6337 7.70326 19.7365 7.46526 19.7548L0.766656 20.2701C0.460936 20.2936 0.206263 20.0389 0.22978 19.7332L0.745057 13.0346C0.763365 12.7966 0.86621 12.573 1.035 12.4042L12.5554 0.883826ZM15.3838 1.94449C14.8957 1.45633 14.1042 1.45633 13.6161 1.94449L12.5606 2.99994L17.4999 7.93928L18.5554 6.88383C19.0436 6.39567 19.0436 5.60421 18.5554 5.11606L15.3838 1.94449ZM16.4393 8.99994L11.4999 4.0606L3.26771 12.2928C2.87718 12.6834 2.87718 13.3165 3.26771 13.707L6.79283 17.2322C7.18336 17.6227 7.81652 17.6227 8.20705 17.2322L16.4393 8.99994ZM5.81656 18.3772L2.12267 14.6833L1.85958 18.1034C1.83606 18.4091 2.09074 18.6638 2.39646 18.6403L5.81656 18.3772Z" fill="#687684"/>
</svg>
