<svg width="10" height="13" viewBox="0 0 10 13" fill="none" xmlns="http://www.w3.org/2000/svg">
<path d="M1.89111 0.5C1.54811 0.5 1.37633 0.914699 1.61887 1.15724L2.49196 2.03033V5.17431L2.32382 5.2864C1.51366 5.82651 0.818471 6.5217 0.278364 7.33186L0.065309 7.65144C-0.105267 7.9073 0.078163 8.25 0.385648 8.25H3.10709L4.50648 11.9817C4.63141 12.3148 5.10255 12.3148 5.22745 11.9817L6.62684 8.25H9.34828C9.65581 8.25 9.83914 7.90726 9.66862 7.65144L9.45556 7.33186C8.97541 6.61163 8.3727 5.98227 7.67561 5.47195C7.56193 5.38567 7.44551 5.30278 7.32646 5.22342L7.24196 5.16709V2.03033L8.11506 1.15724C8.32522 0.947079 8.2243 0.607722 7.97053 0.520803L7.97426 0.517071C7.98056 0.510771 7.9761 0.5 7.96719 0.5H1.89111Z" fill="#687684"/>
</svg>
