<svg width="306" height="16" viewBox="0 0 306 16" fill="none" xmlns="http://www.w3.org/2000/svg">
<path fill-rule="evenodd" clip-rule="evenodd" d="M7 11.0973C7.27614 11.0973 7.5 11.3287 7.5 11.6142V13.6384C10.2487 11.9785 11.9025 10.8043 12.8999 9.77901C13.4787 9.18403 13.7971 8.67665 13.982 8.19283C14.1679 7.70636 14.25 7.16282 14.25 6.44481C14.25 3.87533 12.2353 1.79235 9.75 1.79235H6.25C3.76472 1.79235 1.75 3.87533 1.75 6.44481C1.75 9.01429 3.76472 11.0973 6.25 11.0973H7ZM7.5 15.1324C14.1641 11.1673 15.5 9.54325 15.5 6.44481C15.5 3.16158 12.9256 0.5 9.75 0.5H6.25C3.07436 0.5 0.5 3.16158 0.5 6.44481C0.5 9.72803 3.07436 12.3896 6.25 12.3896V14.9832C6.25 15.3787 6.66196 15.6275 6.9943 15.4317C7.16618 15.3305 7.33473 15.2307 7.5 15.1324Z" fill="#687684"/>
<path d="M68.5029 2.13541C68.3063 1.95486 67.9875 1.95487 67.7908 2.13541L65.1843 4.52864C64.9386 4.75432 64.9386 5.12021 65.1843 5.34589C65.4301 5.57156 65.8286 5.57156 66.0744 5.34589L67.5175 4.02087V10.9472C67.5175 12.543 68.9264 13.8366 70.6643 13.8366H74.6923C75.0399 13.8366 75.3217 13.5779 75.3217 13.2587C75.3217 12.9396 75.0399 12.6808 74.6923 12.6808H70.6643C69.6216 12.6808 68.7762 11.9047 68.7762 10.9472V4.02087L70.2193 5.34589C70.4651 5.57156 70.8636 5.57156 71.1094 5.34589C71.3552 5.12021 71.3552 4.75432 71.1094 4.52864L68.5029 2.13541Z" fill="#687684"/>
<path d="M79.4971 13.8646C79.6937 14.0451 80.0125 14.0451 80.2092 13.8646L82.8157 11.4714C83.0614 11.2457 83.0614 10.8798 82.8157 10.6541C82.5699 10.4284 82.1714 10.4284 81.9256 10.6541L80.4825 11.9791V5.0528C80.4825 3.45704 79.0736 2.16341 77.3357 2.16341H73.3077C72.9601 2.16341 72.6783 2.42214 72.6783 2.74129C72.6783 3.06044 72.9601 3.31917 73.3077 3.31917H77.3357C78.3784 3.31917 79.2238 4.09534 79.2238 5.0528V11.9791L77.7807 10.6541C77.5349 10.4284 77.1364 10.4284 76.8906 10.6541C76.6448 10.8798 76.6448 11.2457 76.8906 11.4714L79.4971 13.8646Z" fill="#687684"/>
<path d="M153.965 12V4.7168H153.871L151.721 6.27539V5.16211L153.971 3.54492H155.02V12H153.965ZM160.034 12.1992C159.233 12.1992 158.571 11.9746 158.048 11.5254C157.524 11.0723 157.239 10.4805 157.192 9.75H158.229C158.276 10.207 158.466 10.5762 158.798 10.8574C159.134 11.1348 159.55 11.2734 160.046 11.2734C160.612 11.2734 161.067 11.0957 161.411 10.7402C161.759 10.3848 161.932 9.91797 161.932 9.33984C161.932 8.76172 161.759 8.29297 161.411 7.93359C161.067 7.57031 160.618 7.38867 160.063 7.38867C159.68 7.38867 159.337 7.47266 159.032 7.64062C158.727 7.80469 158.489 8.03711 158.317 8.33789H157.327L157.79 3.54492H162.507V4.48828H158.616L158.376 7.20117H158.47C158.88 6.7207 159.475 6.48047 160.257 6.48047C161.061 6.48047 161.718 6.74414 162.225 7.27148C162.733 7.79883 162.987 8.47852 162.987 9.31055C162.987 10.1699 162.714 10.8672 162.167 11.4023C161.62 11.9336 160.909 12.1992 160.034 12.1992Z" fill="#CE395F"/>
<path d="M85.8906 5.92383C85.8906 5.17383 86.1445 4.55664 86.6523 4.07227C87.1641 3.58789 87.8125 3.3457 88.5977 3.3457C89.3555 3.3457 89.9902 3.57422 90.502 4.03125C91.0176 4.48438 91.2754 5.04688 91.2754 5.71875C91.2754 6.16016 91.1504 6.59375 90.9004 7.01953C90.6504 7.44531 90.1797 8.0293 89.4883 8.77148L87.4551 10.957V11.0508H91.416V12H85.9434V11.2734L88.8672 8.08008C89.4102 7.49023 89.7715 7.04102 89.9512 6.73242C90.1309 6.42383 90.2207 6.09961 90.2207 5.75977C90.2207 5.33789 90.0605 4.98438 89.7402 4.69922C89.4238 4.41016 89.0332 4.26562 88.5684 4.26562C88.0723 4.26562 87.6719 4.41797 87.3672 4.72266C87.0625 5.02734 86.9102 5.42773 86.9102 5.92383V5.92969H85.8906V5.92383Z" fill="#687684"/>
<path d="M19.8906 5.92383C19.8906 5.17383 20.1445 4.55664 20.6523 4.07227C21.1641 3.58789 21.8125 3.3457 22.5977 3.3457C23.3555 3.3457 23.9902 3.57422 24.502 4.03125C25.0176 4.48438 25.2754 5.04688 25.2754 5.71875C25.2754 6.16016 25.1504 6.59375 24.9004 7.01953C24.6504 7.44531 24.1797 8.0293 23.4883 8.77148L21.4551 10.957V11.0508H25.416V12H19.9434V11.2734L22.8672 8.08008C23.4102 7.49023 23.7715 7.04102 23.9512 6.73242C24.1309 6.42383 24.2207 6.09961 24.2207 5.75977C24.2207 5.33789 24.0605 4.98438 23.7402 4.69922C23.4238 4.41016 23.0332 4.26562 22.5684 4.26562C22.0723 4.26562 21.6719 4.41797 21.3672 4.72266C21.0625 5.02734 20.9102 5.42773 20.9102 5.92383V5.92969H19.8906V5.92383Z" fill="#687684"/>
<path d="M138.551 1.37525L138.925 1.56219C139.542 1.87051 140.042 2.3705 140.35 2.98713C140.412 3.11073 140.588 3.11073 140.65 2.98713C140.958 2.3705 141.458 1.87051 142.075 1.56219L142.449 1.37525C143.208 0.995802 144.077 0.900344 144.901 1.10613C145.693 1.30412 146.392 1.76869 146.882 2.42177L147.092 2.70156C147.681 3.48733 148 4.44304 148 5.42525V5.73774C148 6.18554 147.945 6.63165 147.836 7.06609L147.763 7.35877C147.507 8.38382 147.048 9.3473 146.414 10.1926L145.988 10.761C145.663 11.1943 145.308 11.604 144.925 11.9869L144.492 12.4193C143.504 13.4077 142.363 14.2303 141.112 14.8555C140.727 15.0482 140.273 15.0482 139.888 14.8555C138.637 14.2303 137.496 13.4077 136.508 12.4193L136.075 11.9869C135.692 11.604 135.337 11.1943 135.012 10.761L134.586 10.1926C133.952 9.3473 133.493 8.38382 133.237 7.35877L133.164 7.06609C133.055 6.63165 133 6.18554 133 5.73774V5.42525C133 4.44304 133.319 3.48733 133.908 2.70156L134.118 2.42177C134.608 1.76869 135.307 1.30412 136.099 1.10613C136.923 0.900344 137.792 0.995802 138.551 1.37525Z" fill="#CE395F"/>
<path fill-rule="evenodd" clip-rule="evenodd" d="M205.771 1.14645C205.967 0.951185 206.283 0.951184 206.479 1.14645L210.067 4.73484C210.311 4.97891 210.311 5.37464 210.067 5.61872C209.823 5.8628 209.427 5.8628 209.183 5.61872L206.75 3.18566V10.6768C206.75 11.022 206.47 11.3018 206.125 11.3018C205.78 11.3018 205.5 11.022 205.5 10.6768V3.18566L203.067 5.61872C202.823 5.8628 202.427 5.8628 202.183 5.61872C201.939 5.37464 201.939 4.97891 202.183 4.73484L205.771 1.14645ZM199.125 9.05178C199.47 9.05178 199.75 9.3316 199.75 9.67678V13.6768C199.75 14.16 200.142 14.5518 200.625 14.5518H211.625C212.108 14.5518 212.5 14.16 212.5 13.6768V9.67678C212.5 9.3316 212.78 9.05178 213.125 9.05178C213.47 9.05178 213.75 9.3316 213.75 9.67678V13.6768C213.75 14.8504 212.799 15.8018 211.625 15.8018H200.625C199.451 15.8018 198.5 14.8504 198.5 13.6768V9.67678C198.5 9.3316 198.78 9.05178 199.125 9.05178Z" fill="#687684"/>
<path d="M301.125 1C301.47 1 301.75 1.27982 301.75 1.625V13.625C301.75 13.9702 301.47 14.25 301.125 14.25C300.78 14.25 300.5 13.9702 300.5 13.625V1.625C300.5 1.27982 300.78 1 301.125 1Z" fill="#687684"/>
<path d="M297.625 6.5C297.97 6.5 298.25 6.77982 298.25 7.125V13.625C298.25 13.9702 297.97 14.25 297.625 14.25C297.28 14.25 297 13.9702 297 13.625V7.125C297 6.77982 297.28 6.5 297.625 6.5Z" fill="#687684"/>
<path d="M305.25 5.125C305.25 4.77982 304.97 4.5 304.625 4.5C304.28 4.5 304 4.77982 304 5.125V13.625C304 13.9702 304.28 14.25 304.625 14.25C304.97 14.25 305.25 13.9702 305.25 13.625V5.125Z" fill="#687684"/>
</svg>
