<svg width="306" height="16" viewBox="0 0 306 16" fill="none" xmlns="http://www.w3.org/2000/svg">
<path d="M301.125 0.5C301.47 0.5 301.75 0.779822 301.75 1.125V14.6251C301.75 14.9702 301.47 15.2501 301.125 15.2501C300.78 15.2501 300.5 14.9702 300.5 14.6251V1.125C300.5 0.779822 300.78 0.5 301.125 0.5Z" fill="#687684"/>
<path d="M297.625 6.67529C297.97 6.67529 298.25 6.95511 298.25 7.30029V14.6251C298.25 14.9702 297.97 15.2501 297.625 15.2501C297.28 15.2501 297 14.9702 297 14.6251V7.30029C297 6.95511 297.28 6.67529 297.625 6.67529Z" fill="#687684"/>
<path d="M305.25 5.30029C305.25 4.95512 304.97 4.67529 304.625 4.67529C304.28 4.67529 304 4.95512 304 5.30029V14.6251C304 14.9702 304.28 15.2501 304.625 15.2501C304.97 15.2501 305.25 14.9702 305.25 14.6251V5.30029Z" fill="#687684"/>
<path fill-rule="evenodd" clip-rule="evenodd" d="M135.801 1.11697C136.709 0.889893 137.668 0.996075 138.501 1.4125L138.844 1.58412C139.259 1.79134 139.623 2.07457 139.921 2.41413C139.963 2.46168 140.037 2.46168 140.079 2.41413C140.377 2.07457 140.741 1.79134 141.156 1.58412L141.499 1.4125C142.332 0.996075 143.291 0.889893 144.199 1.11697C145.072 1.3352 145.834 1.84489 146.363 2.54996L146.555 2.80682C147.171 3.62707 147.5 4.61989 147.5 5.6363V5.92317C147.5 6.37799 147.444 6.83129 147.334 7.27303L147.267 7.54171C147.014 8.55255 146.561 9.50474 145.933 10.3419L145.542 10.8637C145.227 11.2833 144.883 11.6803 144.512 12.0517L144.115 12.4486C143.162 13.401 142.061 14.1951 140.852 14.7993C140.317 15.0669 139.683 15.0669 139.148 14.7993C137.939 14.1951 136.838 13.401 135.885 12.4486L135.488 12.0517C135.117 11.6803 134.773 11.2833 134.458 10.8637L134.067 10.3419C133.439 9.50474 132.986 8.55255 132.733 7.54171L132.666 7.27303C132.556 6.83129 132.5 6.37799 132.5 5.92317V5.6363C132.5 4.61989 132.829 3.62707 133.445 2.80682L133.637 2.54996C134.166 1.84489 134.928 1.3352 135.801 1.11697ZM137.921 2.42404C137.36 2.14377 136.722 2.07469 136.119 2.22544C135.538 2.37074 135.015 2.71404 134.645 3.20805L134.452 3.46491C133.985 4.08738 133.73 4.84931 133.73 5.6363V5.92317C133.73 6.29055 133.775 6.65634 133.864 7.01226L133.931 7.28095C134.149 8.15217 134.538 8.96901 135.074 9.68382L135.465 10.2056C135.747 10.5817 136.056 10.9369 136.387 11.2686L136.784 11.6656C137.647 12.528 138.641 13.2442 139.728 13.7878C139.901 13.874 140.099 13.874 140.272 13.7878C141.359 13.2442 142.353 12.528 143.216 11.6656L143.613 11.2686C143.944 10.9369 144.253 10.5817 144.535 10.2056L144.926 9.68382C145.462 8.96901 145.851 8.15217 146.069 7.28095L146.136 7.01226C146.225 6.65634 146.27 6.29055 146.27 5.92317V5.6363C146.27 4.84931 146.015 4.08738 145.548 3.46491L145.355 3.20805C144.985 2.71404 144.462 2.37074 143.881 2.22544C143.278 2.07469 142.64 2.14377 142.079 2.42404L141.736 2.59566C141.292 2.8176 140.924 3.18181 140.695 3.64068C140.285 4.46022 139.712 4.45495 139.305 3.64068C139.076 3.18181 138.708 2.8176 138.264 2.59566L137.921 2.42404Z" fill="#687684"/>
<path fill-rule="evenodd" clip-rule="evenodd" d="M6.5 11.25C6.77614 11.25 7 11.4739 7 11.75V13.7079C9.74874 12.1024 11.4025 10.9666 12.3999 9.97494C12.9787 9.39946 13.2971 8.9087 13.482 8.44074C13.6679 7.97021 13.75 7.44448 13.75 6.75C13.75 4.26472 11.7353 2.25 9.25 2.25H5.75C3.26472 2.25 1.25 4.26472 1.25 6.75C1.25 9.23528 3.26472 11.25 5.75 11.25H6.5ZM7 15.1529C13.6641 11.3177 15 9.74691 15 6.75C15 3.57436 12.4256 1 9.25 1H5.75C2.57436 1 0 3.57436 0 6.75C0 9.92564 2.57436 12.5 5.75 12.5V15.0086C5.75 15.3911 6.16196 15.6318 6.4943 15.4424C6.66618 15.3445 6.83473 15.248 7 15.1529Z" fill="#687684"/>
<path d="M68.8536 1.96969C68.6583 1.77443 68.3417 1.77443 68.1464 1.96969L65.5581 4.55808C65.314 4.80216 65.314 5.19788 65.5581 5.44196C65.8021 5.68604 66.1979 5.68604 66.4419 5.44196L67.875 4.0089V11.5C67.875 13.2259 69.2741 14.625 71 14.625H75C75.3452 14.625 75.625 14.3452 75.625 14C75.625 13.6548 75.3452 13.375 75 13.375H71C69.9645 13.375 69.125 12.5356 69.125 11.5V4.0089L70.5581 5.44196C70.8021 5.68604 71.1979 5.68604 71.4419 5.44196C71.686 5.19788 71.686 4.80216 71.4419 4.55808L68.8536 1.96969Z" fill="#687684"/>
<path d="M79.7714 14.6553C79.9667 14.8506 80.2833 14.8506 80.4786 14.6553L83.0669 12.0669C83.311 11.8228 83.311 11.4271 83.0669 11.183C82.8229 10.939 82.4271 10.939 82.1831 11.183L80.75 12.6161V5.12498C80.75 3.39909 79.3509 1.99998 77.625 1.99998H73.625C73.2798 1.99998 73 2.2798 73 2.62498C73 2.97016 73.2798 3.24998 73.625 3.24998H77.625C78.6605 3.24998 79.5 4.08945 79.5 5.12498V12.6161L78.0669 11.183C77.8229 10.939 77.4271 10.939 77.1831 11.183C76.939 11.4271 76.939 11.8228 77.1831 12.0669L79.7714 14.6553Z" fill="#687684"/>
<path fill-rule="evenodd" clip-rule="evenodd" d="M205.771 1.14645C205.967 0.951185 206.283 0.951184 206.479 1.14645L210.067 4.73484C210.311 4.97891 210.311 5.37464 210.067 5.61872C209.823 5.8628 209.427 5.8628 209.183 5.61872L206.75 3.18566V10.6768C206.75 11.022 206.47 11.3018 206.125 11.3018C205.78 11.3018 205.5 11.022 205.5 10.6768V3.18566L203.067 5.61872C202.823 5.8628 202.427 5.8628 202.183 5.61872C201.939 5.37464 201.939 4.97891 202.183 4.73484L205.771 1.14645ZM199.125 9.05178C199.47 9.05178 199.75 9.3316 199.75 9.67678V13.6768C199.75 14.16 200.142 14.5518 200.625 14.5518H211.625C212.108 14.5518 212.5 14.16 212.5 13.6768V9.67678C212.5 9.3316 212.78 9.05178 213.125 9.05178C213.47 9.05178 213.75 9.3316 213.75 9.67678V13.6768C213.75 14.8504 212.799 15.8018 211.625 15.8018H200.625C199.451 15.8018 198.5 14.8504 198.5 13.6768V9.67678C198.5 9.3316 198.78 9.05178 199.125 9.05178Z" fill="#687684"/>
<path d="M153.465 12V4.7168H153.371L151.221 6.27539V5.16211L153.471 3.54492H154.52V12H153.465Z" fill="#687684"/>
</svg>
