<svg width="13" height="13" viewBox="0 0 13 13" fill="none" xmlns="http://www.w3.org/2000/svg">
<path fill-rule="evenodd" clip-rule="evenodd" d="M9.77429 10.4742C8.73955 11.3502 7.40104 11.8783 5.93916 11.8783C2.65905 11.8783 0 9.21927 0 5.93916C0 2.65905 2.65905 0 5.93916 0C9.21927 0 11.8783 2.65905 11.8783 5.93916C11.8783 7.40104 11.3502 8.73955 10.4742 9.77429L12.855 12.1551C13.0483 12.3484 13.0483 12.6618 12.855 12.855C12.6618 13.0483 12.3484 13.0483 12.1551 12.855L9.77429 10.4742ZM10.8885 5.93916C10.8885 8.67259 8.67258 10.8885 5.93916 10.8885C3.20574 10.8885 0.98986 8.67259 0.98986 5.93916C0.98986 3.20574 3.20574 0.98986 5.93916 0.98986C8.67258 0.98986 10.8885 3.20574 10.8885 5.93916Z" fill="#687684"/>
</svg>
