<svg width="261" height="15" viewBox="0 0 261 15" fill="none" xmlns="http://www.w3.org/2000/svg">
<path fill-rule="evenodd" clip-rule="evenodd" d="M167.301 0.116975C168.209 -0.110107 169.168 -0.00392529 170.001 0.412501L170.344 0.584118C170.759 0.791337 171.123 1.07457 171.421 1.41413C171.463 1.46168 171.537 1.46168 171.579 1.41413C171.877 1.07457 172.241 0.791337 172.656 0.584118L172.999 0.412501C173.832 -0.00392529 174.791 -0.110107 175.699 0.116975C176.572 0.335201 177.334 0.844888 177.863 1.54996L178.055 1.80682C178.671 2.62707 179 3.61989 179 4.6363V4.92317C179 5.37799 178.944 5.83129 178.834 6.27303L178.767 6.54171C178.514 7.55255 178.061 8.50474 177.433 9.34191L177.042 9.86374C176.727 10.2833 176.383 10.6803 176.012 11.0517L175.615 11.4486C174.662 12.401 173.561 13.1951 172.352 13.7993C171.817 14.0669 171.183 14.0669 170.648 13.7993C169.439 13.1951 168.338 12.401 167.385 11.4486L166.988 11.0517C166.617 10.6803 166.273 10.2833 165.958 9.86374L165.567 9.34191C164.939 8.50474 164.486 7.55255 164.233 6.54171L164.166 6.27303C164.056 5.83129 164 5.37799 164 4.92317V4.6363C164 3.61989 164.329 2.62707 164.945 1.80682L165.137 1.54996C165.666 0.844888 166.428 0.335201 167.301 0.116975ZM169.421 1.42404C168.86 1.14377 168.222 1.07469 167.619 1.22544C167.038 1.37074 166.515 1.71404 166.145 2.20805L165.952 2.46491C165.485 3.08738 165.23 3.84931 165.23 4.6363V4.92317C165.23 5.29055 165.275 5.65634 165.364 6.01226L165.431 6.28095C165.649 7.15217 166.038 7.96901 166.574 8.68382L166.965 9.20565C167.247 9.58165 167.556 9.93686 167.887 10.2686L168.284 10.6656C169.147 11.528 170.141 12.2442 171.228 12.7878C171.401 12.874 171.599 12.874 171.772 12.7878C172.859 12.2442 173.853 11.528 174.716 10.6656L175.113 10.2686C175.444 9.93686 175.753 9.58165 176.035 9.20565L176.426 8.68382C176.962 7.96901 177.351 7.15217 177.569 6.28095L177.636 6.01226C177.725 5.65634 177.77 5.29055 177.77 4.92317V4.6363C177.77 3.84931 177.515 3.08738 177.048 2.46491L176.855 2.20805C176.485 1.71404 175.962 1.37074 175.381 1.22544C174.778 1.07469 174.14 1.14377 173.579 1.42404L173.236 1.59566C172.792 1.8176 172.424 2.18181 172.195 2.64068C171.785 3.46022 171.212 3.45495 170.805 2.64068C170.576 2.18181 170.208 1.8176 169.764 1.59566L169.421 1.42404Z" fill="#687684"/>
<path fill-rule="evenodd" clip-rule="evenodd" d="M7 10.25C7.27614 10.25 7.5 10.4739 7.5 10.75V12.7079C10.2487 11.1024 11.9025 9.96659 12.8999 8.97494C13.4787 8.39946 13.7971 7.9087 13.982 7.44074C14.1679 6.97021 14.25 6.44448 14.25 5.75C14.25 3.26472 12.2353 1.25 9.75 1.25H6.25C3.76472 1.25 1.75 3.26472 1.75 5.75C1.75 8.23528 3.76472 10.25 6.25 10.25H7ZM7.5 14.1529C14.1641 10.3177 15.5 8.74691 15.5 5.75C15.5 2.57436 12.9256 0 9.75 0H6.25C3.07436 0 0.5 2.57436 0.5 5.75C0.5 8.92564 3.07436 11.5 6.25 11.5V14.0086C6.25 14.3911 6.66196 14.6318 6.9943 14.4424C7.16618 14.3445 7.33473 14.248 7.5 14.1529Z" fill="#687684"/>
<path d="M84.3536 0.969689C84.1583 0.774427 83.8417 0.774427 83.6464 0.969689L81.0581 3.55808C80.814 3.80216 80.814 4.19788 81.0581 4.44196C81.3021 4.68604 81.6979 4.68604 81.9419 4.44196L83.375 3.0089V10.5C83.375 12.2259 84.7741 13.625 86.5 13.625H90.5C90.8452 13.625 91.125 13.3452 91.125 13C91.125 12.6548 90.8452 12.375 90.5 12.375H86.5C85.4645 12.375 84.625 11.5356 84.625 10.5V3.0089L86.0581 4.44196C86.3021 4.68604 86.6979 4.68604 86.9419 4.44196C87.186 4.19788 87.186 3.80216 86.9419 3.55808L84.3536 0.969689Z" fill="#687684"/>
<path d="M95.2714 13.6553C95.4667 13.8506 95.7833 13.8506 95.9786 13.6553L98.5669 11.0669C98.811 10.8228 98.811 10.4271 98.5669 10.183C98.3229 9.93896 97.9271 9.93896 97.6831 10.183L96.25 11.6161V4.12498C96.25 2.39909 94.8509 0.999981 93.125 0.999981H89.125C88.7798 0.999981 88.5 1.2798 88.5 1.62498C88.5 1.97016 88.7798 2.24998 89.125 2.24998H93.125C94.1605 2.24998 95 3.08945 95 4.12498V11.6161L93.5669 10.183C93.3229 9.93896 92.9271 9.93896 92.6831 10.183C92.439 10.4271 92.439 10.8228 92.6831 11.0669L95.2714 13.6553Z" fill="#687684"/>
<path fill-rule="evenodd" clip-rule="evenodd" d="M252.271 0.146447C252.467 -0.0488154 252.783 -0.0488157 252.979 0.146446L256.567 3.73484C256.811 3.97891 256.811 4.37464 256.567 4.61872C256.323 4.8628 255.927 4.8628 255.683 4.61872L253.25 2.18566V9.67678C253.25 10.022 252.97 10.3018 252.625 10.3018C252.28 10.3018 252 10.022 252 9.67678V2.18566L249.567 4.61872C249.323 4.8628 248.927 4.8628 248.683 4.61872C248.439 4.37464 248.439 3.97891 248.683 3.73484L252.271 0.146447ZM245.625 8.05178C245.97 8.05178 246.25 8.3316 246.25 8.67678V12.6768C246.25 13.16 246.642 13.5518 247.125 13.5518H258.125C258.608 13.5518 259 13.16 259 12.6768V8.67678C259 8.3316 259.28 8.05178 259.625 8.05178C259.97 8.05178 260.25 8.3316 260.25 8.67678V12.6768C260.25 13.8504 259.299 14.8018 258.125 14.8018H247.125C245.951 14.8018 245 13.8504 245 12.6768V8.67678C245 8.3316 245.28 8.05178 245.625 8.05178Z" fill="#687684"/>
<path d="M20.2949 11L24.0918 3.57031V3.48828H19.5684V2.54492H25.1641V3.52344L21.4023 11H20.2949Z" fill="#687684"/>
<path d="M103.965 11V3.7168H103.871L101.721 5.27539V4.16211L103.971 2.54492H105.02V11H103.965Z" fill="#687684"/>
<path d="M184.965 11V3.7168H184.871L182.721 5.27539V4.16211L184.971 2.54492H186.02V11H184.965ZM190.266 11V3.7168H190.173L188.022 5.27539V4.16211L190.272 2.54492H191.321V11H190.266Z" fill="#687684"/>
</svg>
