<svg width="414" height="50" viewBox="0 0 414 50" fill="none" xmlns="http://www.w3.org/2000/svg">
<g clip-path="url(#clip0_4_2300)">
<g filter="url(#filter0_d_4_2300)">
<rect y="0.329956" width="414" height="49.67" fill="white"/>
</g>
<path d="M28 23C28.8284 23 29.5 22.3284 29.5 21.5C29.5 20.6716 28.8284 20 28 20C27.1716 20 26.5 20.6716 26.5 21.5C26.5 22.3284 27.1716 23 28 23Z" fill="#4C9EEB"/>
<path fill-rule="evenodd" clip-rule="evenodd" d="M40 18V27.4393L40.0303 27.4697L40 27.5V32C40 33.1046 39.1046 34 38 34H35L34.9697 34.0303L34.9393 34H24C22.8954 34 22 33.1046 22 32V18C22 16.8954 22.8954 16 24 16H38C39.1046 16 40 16.8954 40 18ZM24 17.5H38C38.2761 17.5 38.5 17.7239 38.5 18V25.9393L36.2012 23.6405C35.5431 22.9824 34.4849 22.9546 33.7931 23.5772L30.0272 26.9665L29.2374 26.1768C28.554 25.4934 27.446 25.4934 26.7626 26.1768L23.5 29.4393V18C23.5 17.7239 23.7239 17.5 24 17.5ZM35.1405 24.7012L38.5 28.0607V32C38.5 32.2761 38.2761 32.5 38 32.5H35.5607L31.0893 28.0286L34.7965 24.6922C34.8954 24.6032 35.0465 24.6072 35.1405 24.7012ZM23.5 31.5V32C23.5 32.2761 23.7239 32.5 24 32.5H33.4393L28.1768 27.2374C28.0791 27.1398 27.9209 27.1398 27.8232 27.2374L23.5303 31.5303L23.5 31.5Z" fill="#4C9EEB"/>
<path d="M75.3665 27.4521C75.8507 26.979 76.0928 26.3302 76.0928 25.5056V24.7336H73.5278V25.7795H74.6235L74.6194 25.8792C74.6 26.1835 74.4797 26.4284 74.2583 26.6138C74.0369 26.7992 73.7533 26.8918 73.4075 26.8918C72.9703 26.8918 72.6217 26.7217 72.3616 26.3813C72.1042 26.0382 71.9756 25.572 71.9756 24.9827C71.9756 24.3988 72.0946 23.9423 72.3325 23.613C72.5732 23.2838 72.9067 23.1191 73.3328 23.1191C73.6316 23.1191 73.8861 23.1952 74.0964 23.3474C74.3095 23.4968 74.4534 23.703 74.5281 23.9658H76.0305C75.9558 23.3322 75.6694 22.8217 75.1714 22.4343C74.6761 22.0442 74.0632 21.8491 73.3328 21.8491C72.4335 21.8491 71.7238 22.1313 71.2036 22.6958C70.6834 23.2575 70.4233 24.0253 70.4233 24.9993C70.4233 25.9843 70.6848 26.7576 71.2078 27.3193C71.7307 27.881 72.4529 28.1619 73.3743 28.1619C74.2209 28.1619 74.885 27.9253 75.3665 27.4521Z" fill="#4C9EEB"/>
<path d="M76.93 28H78.4532V22.011H76.93V28Z" fill="#4C9EEB"/>
<path d="M79.5685 28H81.0917V25.7671H83.4076V24.6008H81.0917V23.2354H83.6441V22.011H79.5685V28Z" fill="#4C9EEB"/>
<path fill-rule="evenodd" clip-rule="evenodd" d="M67 18C67 16.8954 67.8954 16 69 16H85C86.1046 16 87 16.8954 87 18V32C87 33.1046 86.1046 34 85 34H69C67.8954 34 67 33.1046 67 32V18ZM69 17.5H85C85.2761 17.5 85.5 17.7239 85.5 18V32C85.5 32.2761 85.2761 32.5 85 32.5H69C68.7239 32.5 68.5 32.2761 68.5 32V18C68.5 17.7239 68.7239 17.5 69 17.5Z" fill="#4C9EEB"/>
<path fill-rule="evenodd" clip-rule="evenodd" d="M115.5 16.75C115.5 16.3358 115.164 16 114.75 16C114.336 16 114 16.3358 114 16.75V33.25C114 33.6642 114.336 34 114.75 34C115.164 34 115.5 33.6642 115.5 33.25V31.75H125C125.966 31.75 126.75 30.9665 126.75 30V27.75H130.5C131.466 27.75 132.25 26.9665 132.25 26V24C132.25 23.0335 131.466 22.25 130.5 22.25H129.25V20C129.25 19.0335 128.466 18.25 127.5 18.25H115.5V16.75ZM115.5 19.75V22.25H127.75V20C127.75 19.8619 127.638 19.75 127.5 19.75H115.5ZM115.5 23.75V26.25H130.5C130.638 26.25 130.75 26.1381 130.75 26V24C130.75 23.8619 130.638 23.75 130.5 23.75H115.5ZM115.5 27.75V30.25H125C125.138 30.25 125.25 30.1381 125.25 30V27.75H115.5Z" fill="#4C9EEB"/>
<path fill-rule="evenodd" clip-rule="evenodd" d="M172.75 23.75C172.75 25.8211 171.071 27.5 169 27.5C166.929 27.5 165.25 25.8211 165.25 23.75C165.25 21.6789 166.929 20 169 20C171.071 20 172.75 21.6789 172.75 23.75ZM171.25 23.75C171.25 24.9926 170.243 26 169 26C167.757 26 166.75 24.9926 166.75 23.75C166.75 22.5074 167.757 21.5 169 21.5C170.243 21.5 171.25 22.5074 171.25 23.75Z" fill="#4C9EEB"/>
<path fill-rule="evenodd" clip-rule="evenodd" d="M177 24C177 29.5 170 34 169 34C168 34 161 29.5 161 24C161 19.5817 164.582 16 169 16C173.418 16 177 19.5817 177 24ZM175.5 24C175.5 26.1344 174.111 28.2652 172.332 29.984C171.471 30.8171 170.582 31.4897 169.866 31.946C169.508 32.1738 169.212 32.3358 169 32.435C168.788 32.3358 168.492 32.1738 168.134 31.946C167.418 31.4897 166.529 30.8171 165.668 29.984C163.889 28.2652 162.5 26.1344 162.5 24C162.5 20.4101 165.41 17.5 169 17.5C172.59 17.5 175.5 20.4101 175.5 24Z" fill="#4C9EEB"/>
<circle cx="328.5" cy="25" r="7.5" stroke="#CED5DC" stroke-width="1.5"/>
<circle cx="383" cy="25" r="10" fill="#B9DCF7"/>
<path d="M383.75 21.25C383.75 20.8358 383.414 20.5 383 20.5C382.586 20.5 382.25 20.8358 382.25 21.25V24.25H379.25C378.836 24.25 378.5 24.5858 378.5 25C378.5 25.4142 378.836 25.75 379.25 25.75H382.25V28.75C382.25 29.1642 382.586 29.5 383 29.5C383.414 29.5 383.75 29.1642 383.75 28.75V25.75H386.75C387.164 25.75 387.5 25.4142 387.5 25C387.5 24.5858 387.164 24.25 386.75 24.25H383.75V21.25Z" fill="white"/>
<line x1="355.825" y1="12" x2="355.825" y2="38" stroke="#CED5DC" stroke-width="0.35"/>
</g>
<defs>
<filter id="filter0_d_4_2300" x="0" y="-4.39584e-05" width="414" height="50" filterUnits="userSpaceOnUse" color-interpolation-filters="sRGB">
<feFlood flood-opacity="0" result="BackgroundImageFix"/>
<feColorMatrix in="SourceAlpha" type="matrix" values="0 0 0 0 0 0 0 0 0 0 0 0 0 0 0 0 0 0 127 0" result="hardAlpha"/>
<feOffset dy="-0.33"/>
<feColorMatrix type="matrix" values="0 0 0 0 0.741176 0 0 0 0 0.772549 0 0 0 0 0.803922 0 0 0 1 0"/>
<feBlend mode="normal" in2="BackgroundImageFix" result="effect1_dropShadow_4_2300"/>
<feBlend mode="normal" in="SourceGraphic" in2="effect1_dropShadow_4_2300" result="shape"/>
</filter>
<clipPath id="clip0_4_2300">
<rect width="414" height="50" fill="white"/>
</clipPath>
</defs>
</svg>
